<svg viewBox="0 0 20 20" xmlns="http://www.w3.org/2000/svg">
<path d="M6.87543 4.55871C7.71167 4.55872 8.52927 4.81138 9.22113 5.28245C9.91291 5.75365 10.4479 6.42337 10.7563 7.20295C11.0645 7.98238 11.1321 8.83673 10.9506 9.65523C10.769 10.4738 10.3465 11.2192 9.73773 11.7941L9.63227 11.893L9.5268 11.9929L9.78656 12.1202C10.86 12.6445 11.7745 13.4473 12.436 14.4442C13.0972 15.4411 13.4817 16.5973 13.5493 17.7926C13.5547 17.889 13.5411 17.9858 13.5092 18.0776C13.4772 18.1699 13.4278 18.2552 13.3637 18.3273C13.2997 18.3994 13.2209 18.4582 13.1332 18.5007C13.046 18.5429 12.9506 18.5676 12.8539 18.5732C12.7573 18.5786 12.6608 18.5648 12.5698 18.533C12.4783 18.501 12.393 18.4517 12.3207 18.3871C12.2487 18.3226 12.191 18.2434 12.1489 18.156C12.1173 18.0905 12.0947 18.0209 12.0834 17.9493L12.0766 17.8769C12.0043 16.5425 11.4244 15.2863 10.4575 14.3669C9.49018 13.4474 8.20725 12.9341 6.87445 12.9331C5.54188 12.9343 4.26053 13.4476 3.2934 14.3669C2.32632 15.2863 1.74656 16.5424 1.67426 17.8769C1.66878 17.9737 1.64413 18.0693 1.60199 18.1569C1.55997 18.2442 1.50114 18.3226 1.42914 18.3871C1.35715 18.4515 1.27238 18.501 1.18109 18.533C1.08945 18.5651 0.992287 18.5796 0.895938 18.5741C0.79954 18.5686 0.704878 18.5438 0.617618 18.5017C0.530046 18.4593 0.451324 18.4004 0.387149 18.3283C0.323074 18.2563 0.273797 18.1709 0.241641 18.0786C0.209719 17.9868 0.196186 17.8901 0.201602 17.7936C0.268933 16.5979 0.653432 15.4414 1.31488 14.4442C1.97626 13.4474 2.88997 12.6445 3.96332 12.1202L4.22504 11.9929L4.11859 11.893L4.0141 11.7941C3.40526 11.2191 2.98185 10.474 2.80024 9.65523C2.61877 8.8368 2.68641 7.98233 2.99457 7.20295C3.30303 6.42326 3.8388 5.75366 4.5307 5.28245C5.22249 4.81144 6.0393 4.55877 6.87543 4.55871ZM6.88031 6.03949C6.52086 6.03133 6.16302 6.09527 5.82856 6.22752C5.49424 6.35975 5.18925 6.55727 4.93207 6.80925C4.67497 7.06125 4.47008 7.36232 4.33051 7.69458C4.19096 8.02694 4.11868 8.3847 4.11859 8.74542C4.11856 9.10584 4.19026 9.46301 4.32953 9.79528C4.46898 10.1277 4.67418 10.4285 4.93109 10.6806C5.18798 10.9326 5.49232 11.1308 5.8266 11.2633C6.16087 11.3957 6.51891 11.4603 6.87836 11.4523C7.58343 11.4366 8.25514 11.1449 8.74848 10.6395C9.24171 10.1337 9.51879 9.45383 9.51898 8.7464C9.51915 8.03874 9.24262 7.35836 8.74945 6.85234C8.25642 6.34667 7.58528 6.05566 6.88031 6.03949ZM16.562 1.4248C16.7573 1.4248 16.946 1.50349 17.0844 1.64222C17.2226 1.78093 17.3002 1.96927 17.3002 2.16519V3.93193H19.062C19.2573 3.93193 19.446 4.01062 19.5844 4.14935C19.7225 4.28806 19.8002 4.47641 19.8002 4.67232L19.7856 4.81726C19.7572 4.95922 19.688 5.09131 19.5844 5.19529C19.446 5.33402 19.2573 5.4127 19.062 5.4127H17.3002V7.17945L17.2856 7.32439C17.2572 7.46636 17.188 7.59844 17.0844 7.70242C16.946 7.84115 16.7573 7.91983 16.562 7.91983C16.367 7.9197 16.1798 7.84097 16.0414 7.70242C15.9378 7.59841 15.8676 7.46644 15.8393 7.32439L15.8256 7.17945V5.4127H14.062C13.867 5.41256 13.6798 5.33384 13.5414 5.19529C13.4378 5.09127 13.3676 4.95931 13.3393 4.81726L13.3256 4.67232C13.3256 4.47625 13.4032 4.28805 13.5414 4.14935C13.6798 4.0108 13.867 3.93208 14.062 3.93193H15.8256V2.16519C15.8256 1.9691 15.9032 1.78092 16.0414 1.64222C16.1798 1.50366 16.367 1.42494 16.562 1.4248Z" fill="currentcolor"/>
</svg>
