<svg viewBox="0 0 20 20" fill="none" xmlns="http://www.w3.org/2000/svg">
<path fill-rule="evenodd" clip-rule="evenodd" d="M18 8C18 14 11.3333 20 10 20C8.66667 20 2 14 2 8C2 3.58667 5.58667 0 10 0C14.4133 0 18 3.58667 18 8ZM11.4135 9.41449C11.7889 9.03942 11.9998 8.53061 12 8C12.0002 7.46939 11.7896 6.96044 11.4145 6.58512C11.0394 6.2098 10.5306 5.99884 10 5.99867C9.46939 5.99849 8.96044 6.2091 8.58512 6.58418C8.2098 6.95925 7.99884 7.46806 7.99867 7.99867C7.99849 8.52928 8.2091 9.03823 8.58418 9.41355C8.95925 9.78887 9.46806 9.99982 9.99867 10C10.5293 10.0002 11.0382 9.78956 11.4135 9.41449Z" fill="currentcolor"/>
</svg>
