<svg viewBox="0 0 20 20" fill="none" xmlns="http://www.w3.org/2000/svg">
<path fill-rule="evenodd" clip-rule="evenodd" d="M17.1233 2.8764C16.6555 2.40854 16.0216 2.14473 15.3599 2.14258H4.64007C3.97844 2.14473 3.34453 2.40854 2.87667 2.8764C2.40882 3.34425 2.14501 3.97816 2.14286 4.63979V8.87528C1.73898 9.05245 1.36695 9.30241 1.04911 9.62026C0.380496 10.2889 0.00297373 11.1943 0 12.1398V17.1426C0 17.5371 0.319797 17.8569 0.714286 17.8569C1.10877 17.8569 1.42857 17.5371 1.42857 17.1426V16.798V16.7868C1.42903 16.6919 1.46745 16.6015 1.5346 16.5343C1.58506 16.4839 1.64842 16.4492 1.71735 16.4353L1.78711 16.4283H18.2129L18.2826 16.4353C18.3516 16.4492 18.4149 16.4839 18.4654 16.5343C18.5325 16.6015 18.571 16.6919 18.5714 16.7868V17.1286V17.1426C18.5714 17.5371 18.8912 17.8569 19.2857 17.8569C19.6802 17.8569 20 17.5371 20 17.1426V12.1398C19.997 11.1943 19.6195 10.2889 18.9509 9.62026C18.633 9.30241 18.261 9.05245 17.8571 8.87528V4.63979C17.855 3.97816 17.5912 3.34425 17.1233 2.8764ZM1.78432 14.9997C1.66417 15.0001 1.54454 15.0122 1.42857 15.036V12.3337V12.1454C1.43025 11.577 1.65726 11.0322 2.05915 10.6303C2.41091 10.2785 2.87152 10.0608 3.36217 10.0109L3.57422 9.99972H16.4258L16.6378 10.0109C17.1285 10.0608 17.5891 10.2785 17.9408 10.6303C18.2926 10.9821 18.5104 11.4427 18.5603 11.9333L18.5714 12.1454V15.036C18.4555 15.0122 18.3358 15.0001 18.2157 14.9997H11.3267H1.78432ZM8.70954 7.87081L8.57003 7.85686H5.0014L4.86189 7.87081C4.7243 7.89858 4.59708 7.96682 4.49637 8.06752C4.36263 8.20127 4.28677 8.38206 4.28571 8.57115H9.28571C9.28466 8.38206 9.2088 8.20127 9.07506 8.06752C8.97435 7.96682 8.84713 7.89858 8.70954 7.87081ZM14.9986 7.85686L15.1381 7.87081C15.2757 7.89858 15.4029 7.96682 15.5036 8.06752C15.6374 8.20126 15.7132 8.38206 15.7143 8.57115H10.7143C10.7153 8.38206 10.7912 8.20126 10.9249 8.06752C11.0257 7.96682 11.1529 7.89858 11.2905 7.87081L11.43 7.85686H14.9986ZM16.1133 3.88644C15.9121 3.68529 15.6388 3.572 15.3544 3.57115H4.64565L4.43499 3.59208C4.22879 3.63372 4.03764 3.73551 3.88672 3.88644C3.68557 4.08759 3.57228 4.3609 3.57143 4.64537V6.97935C3.96282 6.62796 4.46994 6.42977 4.99861 6.42829H8.57282C9.10149 6.42977 9.60861 6.62796 10 6.97935C10.3914 6.62796 10.8985 6.42977 11.4272 6.42829H15.0014C15.5301 6.42977 16.0372 6.62796 16.4286 6.97935V4.64537L16.4076 4.43471C16.366 4.22851 16.2642 4.03736 16.1133 3.88644Z" fill="currentcolor"/>
</svg>
