<svg viewBox="0 0 20 20" fill="currentcolor" xmlns="http://www.w3.org/2000/svg">
<path fill-rule="evenodd" clip-rule="evenodd" d="M4.7985 5.48354C4.86494 4.45431 5.33223 3.48838 6.10526 2.7824C6.87828 2.07643 7.89891 1.68348 8.95938 1.68354H9.51041V0.962025C9.51041 0.70688 9.61464 0.462185 9.80016 0.281771C9.98569 0.101356 10.2373 0 10.4997 0C10.7621 0 11.0137 0.101356 11.1992 0.281771C11.3847 0.462185 11.489 0.70688 11.489 0.962025V1.68354H12.04C13.1005 1.68348 14.1211 2.07643 14.8941 2.7824C15.6671 3.48838 16.1344 4.45431 16.2009 5.48354L16.4195 8.88334C16.504 10.1794 16.9515 11.4283 17.7135 12.4948C17.8711 12.7151 17.9675 12.9714 17.9931 13.2387C18.0187 13.506 17.9728 13.7752 17.8598 14.0201C17.7467 14.2651 17.5704 14.4774 17.3481 14.6364C17.1257 14.7954 16.8647 14.8958 16.5906 14.9277L13.2202 15.3203V16.3544C13.2202 17.0561 12.9336 17.729 12.4234 18.2251C11.9132 18.7213 11.2212 19 10.4997 19C9.77816 19 9.08619 18.7213 8.576 18.2251C8.06581 17.729 7.77918 17.0561 7.77918 16.3544V15.3203L4.40873 14.9268C4.13479 14.8948 3.87403 14.7944 3.65178 14.6354C3.42953 14.4764 3.25334 14.2642 3.14033 14.0195C3.02733 13.7747 2.98134 13.5057 3.00685 13.2385C3.03236 12.9713 3.12849 12.7151 3.2859 12.4948C4.04789 11.4283 4.49536 10.1794 4.57987 8.88334L4.7985 5.48354ZM8.95938 3.12658C8.27637 3.1265 7.61899 3.37957 7.1211 3.83426C6.6232 4.28894 6.32223 4.91107 6.27944 5.57397L6.0618 8.97377C5.96009 10.533 5.42161 12.0354 4.50469 13.3183C4.49328 13.3342 4.48631 13.3528 4.48444 13.3721C4.48258 13.3914 4.48589 13.4109 4.49406 13.4286C4.50222 13.4463 4.51496 13.4617 4.53104 13.4732C4.54712 13.4847 4.56599 13.492 4.58581 13.4943L8.28272 13.9263C9.75575 14.0975 11.2436 14.0975 12.7166 13.9263L16.4136 13.4943C16.4334 13.492 16.4522 13.4847 16.4683 13.4732C16.4844 13.4617 16.4971 13.4463 16.5053 13.4286C16.5135 13.4109 16.5168 13.3914 16.5149 13.3721C16.5131 13.3528 16.5061 13.3342 16.4947 13.3183C15.5781 12.0353 15.04 10.5329 14.9386 8.97377L14.7199 5.57397C14.6771 4.91107 14.3762 4.28894 13.8783 3.83426C13.3804 3.37957 12.723 3.1265 12.04 3.12658H8.95938ZM10.4997 17.557C9.81708 17.557 9.26309 17.0182 9.26309 16.3544V15.6329H11.7363V16.3544C11.7363 17.0182 11.1823 17.557 10.4997 17.557Z" fill="currentcolor"/>
</svg>
