<svg viewBox="0 0 20 20" xmlns="http://www.w3.org/2000/svg">
<path fill-rule="evenodd" clip-rule="evenodd" d="M14.5 0.474609C14.9142 0.474609 15.25 0.810396 15.25 1.22461V1.90137C15.4599 1.91837 15.6604 1.93732 15.8506 1.96289C16.9138 2.10588 17.786 2.40907 18.4756 3.09863C19.1654 3.78842 19.4683 4.66111 19.6113 5.72461C19.75 6.75626 19.75 8.07266 19.75 9.72528V9.77441V11.5742V11.624C19.75 13.2765 19.75 14.5934 19.6113 15.625C19.4683 16.6884 19.1653 17.5613 18.4756 18.251L18.4746 18.25C17.785 18.9394 16.9136 19.2428 15.8506 19.3857C14.819 19.5244 13.502 19.5244 11.8495 19.5244H11.7998H8.2002H8.15035C6.49788 19.5244 5.18099 19.5244 4.14941 19.3857C3.08636 19.2428 2.21403 18.9404 1.52441 18.251C0.834677 17.5613 0.531671 16.6884 0.388672 15.625C0.249975 14.5934 0.249986 13.2764 0.25 11.6238L0.250001 11.5742V9.77441L0.25 9.72541C0.249986 8.0727 0.249976 6.7563 0.388672 5.72461C0.531656 4.66111 0.834634 3.78842 1.52441 3.09863C2.21408 2.40908 3.08622 2.10588 4.14941 1.96289C4.33962 1.93732 4.54012 1.91837 4.75 1.90137V1.22461C4.75 0.810397 5.08579 0.474611 5.5 0.474609C5.91421 0.474609 6.25 0.810396 6.25 1.22461V1.83691C6.84098 1.82657 7.4898 1.82422 8.2002 1.82422H11.7998C12.5102 1.82422 13.159 1.82657 13.75 1.83691V1.22461C13.75 0.810397 14.0858 0.474611 14.5 0.474609ZM18.2373 7.82383C18.2474 8.39195 18.25 9.03643 18.25 9.77402V11.5738C18.25 13.292 18.2485 14.5057 18.125 15.4244C18.0044 16.3215 17.7796 16.8245 17.415 17.1891C17.0505 17.5537 16.5475 17.7784 15.6504 17.899C14.7316 18.0225 13.518 18.024 11.7998 18.024H8.2002C6.48194 18.024 5.26835 18.0225 4.34961 17.899C3.45255 17.7784 2.94958 17.5537 2.58496 17.1891C2.22039 16.8245 1.99561 16.3215 1.875 15.4244C1.75149 14.5057 1.75 13.292 1.75 11.5738V9.77402C1.75 9.03643 1.75259 8.39195 1.7627 7.82383H18.2373ZM15.6504 3.4498C14.7316 3.32628 13.518 3.32383 11.7998 3.32383H8.2002C6.48194 3.32383 5.26835 3.32628 4.34961 3.4498C3.45274 3.57041 2.94955 3.7943 2.58496 4.15879C2.22033 4.52342 1.99562 5.02725 1.875 5.92441C1.8579 6.05169 1.8438 6.18469 1.83106 6.32383H18.1689C18.1562 6.18469 18.1421 6.05169 18.125 5.92441C18.0044 5.02725 17.7797 4.52342 17.415 4.15879C17.0505 3.7943 16.5473 3.57041 15.6504 3.4498Z" fill="currentcolor"/>
</svg>
