<svg viewBox="0 0 20 20" xmlns="http://www.w3.org/2000/svg">
<path d="M6.80665 14.314L3.0786 10.4506C2.87771 10.2425 2.60526 10.1255 2.32117 10.1255C2.03708 10.1255 1.76462 10.2425 1.56374 10.4506C1.36285 10.6588 1.25 10.9412 1.25 11.2356C1.25 11.3813 1.27771 11.5257 1.33154 11.6604C1.38537 11.795 1.46427 11.9174 1.56374 12.0205L6.0546 16.6743C6.4736 17.1086 7.15045 17.1086 7.56945 16.6743L18.9363 4.89497C19.1371 4.68679 19.25 4.40445 19.25 4.11005C19.25 3.81564 19.1371 3.5333 18.9363 3.32512C18.7354 3.11695 18.4629 3 18.1788 3C17.8947 3 17.6223 3.11695 17.4214 3.32512L6.80665 14.314Z" fill="currentcolor"/>
</svg>
