<svg viewBox="0 0 20 20" xmlns="http://www.w3.org/2000/svg">
<path d="M11.6667 4.16699C11.8825 4.16699 12.0898 4.25063 12.2451 4.40033L12.3176 4.47949L15.4001 8.33366H15.8334C16.4711 8.33362 17.0847 8.57726 17.5486 9.01473C18.0126 9.45219 18.2918 10.0504 18.3293 10.687L18.3334 10.8337V14.167C18.3334 14.388 18.2456 14.6 18.0893 14.7562C17.9331 14.9125 17.7211 15.0003 17.5001 15.0003H16.5242C16.3517 15.4877 16.0324 15.9096 15.6102 16.208C15.188 16.5064 14.6837 16.6667 14.1667 16.6667C13.6497 16.6667 13.1455 16.5064 12.7233 16.208C12.3011 15.9096 11.9818 15.4877 11.8092 15.0003H8.19092C8.0184 15.4877 7.69908 15.9096 7.27689 16.208C6.85471 16.5064 6.35042 16.6667 5.83342 16.6667C5.31641 16.6667 4.81212 16.5064 4.38994 16.208C3.96775 15.9096 3.64843 15.4877 3.47591 15.0003H2.50008C2.27907 15.0003 2.06711 14.9125 1.91083 14.7562C1.75455 14.6 1.66675 14.388 1.66675 14.167V9.16699L1.67258 9.06949L1.67925 9.02283L1.69341 8.95783L1.70341 8.92783L1.71508 8.88616L3.39341 4.69116C3.45519 4.53652 3.56188 4.40394 3.69972 4.31052C3.83756 4.21709 4.00023 4.1671 4.16675 4.16699H11.6667ZM5.83342 13.3337C5.6124 13.3337 5.40044 13.4215 5.24416 13.5777C5.08788 13.734 5.00008 13.946 5.00008 14.167C5.00008 14.388 5.08788 14.6 5.24416 14.7562C5.40044 14.9125 5.6124 15.0003 5.83342 15.0003C6.05443 15.0003 6.26639 14.9125 6.42267 14.7562C6.57895 14.6 6.66675 14.388 6.66675 14.167C6.66675 13.946 6.57895 13.734 6.42267 13.5777C6.26639 13.4215 6.05443 13.3337 5.83342 13.3337ZM14.1667 13.3337C13.9457 13.3337 13.7338 13.4215 13.5775 13.5777C13.4212 13.734 13.3334 13.946 13.3334 14.167C13.3334 14.388 13.4212 14.6 13.5775 14.7562C13.7338 14.9125 13.9457 15.0003 14.1667 15.0003C14.3878 15.0003 14.5997 14.9125 14.756 14.7562C14.9123 14.6 15.0001 14.388 15.0001 14.167C15.0001 13.946 14.9123 13.734 14.756 13.5777C14.5997 13.4215 14.3878 13.3337 14.1667 13.3337ZM9.16675 5.83366H4.73008L3.73008 8.33366H9.16675V5.83366ZM11.2667 5.83366H10.8334V8.33366H13.2667L11.2667 5.83366Z" fill="currentcolor"/>
</svg>
