<svg viewBox="0 0 20 20" xmlns="http://www.w3.org/2000/svg">
<path fill-rule="evenodd" clip-rule="evenodd" d="M10.0613 0L10 6.04585e-07L9.93872 0C7.79535 -1.618e-05 6.11513 -2.86241e-05 4.80378 0.176236C3.45984 0.356925 2.39942 0.73466 1.56704 1.56704C0.73466 2.39942 0.356925 3.45984 0.176236 4.80378C-2.86241e-05 6.11513 -1.618e-05 7.79535 0 9.93872L6.04585e-07 10L0 10.0613C-1.62014e-05 12.2047 -2.86657e-05 13.8849 0.176236 15.1962C0.356924 16.5402 0.734647 17.6006 1.56704 18.433C2.39942 19.2653 3.45985 19.6431 4.80378 19.8238C6.1151 20 7.79528 20 9.93859 20H10H10.0615C12.2047 20 13.8849 20 15.1962 19.8238C16.5402 19.6431 17.6006 19.2654 18.433 18.433C19.2654 17.6006 19.6431 16.5402 19.8238 15.1962C20 13.8849 20 12.2047 20 10.0615V10V9.93859C20 7.79528 20 6.1151 19.8238 4.80378C19.6431 3.45985 19.2653 2.39942 18.433 1.56704C17.6006 0.734647 16.5402 0.356924 15.1962 0.176236C13.8849 -2.86657e-05 12.2047 -1.62014e-05 10.0613 0ZM15.0109 1.55977C13.8016 1.39719 12.2123 1.39535 10 1.39535C7.7877 1.39535 6.19838 1.39719 4.9891 1.55977C3.80008 1.71967 3.08346 2.02373 2.5536 2.5536C2.02373 3.08346 1.71967 3.80008 1.55977 4.9891C1.39719 6.19838 1.39535 7.7877 1.39535 10C1.39535 12.2123 1.39719 13.8016 1.55977 15.0109C1.71967 16.1999 2.02374 16.9166 2.5536 17.4464C3.08346 17.9763 3.80009 18.2803 4.9891 18.4402C6.19838 18.6028 7.7877 18.6047 10 18.6047C12.2123 18.6047 13.8016 18.6028 15.0109 18.4402C16.1999 18.2803 16.9166 17.9763 17.4464 17.4464C17.9763 16.9166 18.2803 16.1999 18.4402 15.0109C18.6028 13.8016 18.6047 12.2123 18.6047 10C18.6047 7.7877 18.6028 6.19838 18.4402 4.9891C18.2803 3.80009 17.9763 3.08346 17.4464 2.5536C16.9166 2.02374 16.1999 1.71967 15.0109 1.55977ZM13.7491 7.18114C13.4766 6.90868 13.035 6.90868 12.7625 7.18114L8.60465 11.339L7.23746 9.97184C6.965 9.69938 6.52337 9.69938 6.25091 9.97184C5.97845 10.2443 5.97845 10.6859 6.25091 10.9584L8.11137 12.8189C8.38383 13.0913 8.82547 13.0913 9.09793 12.8189L13.7491 8.1677C14.0216 7.89524 14.0216 7.4536 13.7491 7.18114Z" fill="currentcolor"/>
</svg>
