<svg viewBox="0 0 20 20" xmlns="http://www.w3.org/2000/svg">
<g clip-path="url(#clip0_2142_6843)">
<path fill-rule="evenodd" clip-rule="evenodd" d="M20 10C20 15.523 15.523 20 10 20C4.477 20 0 15.523 0 10C0 4.477 4.477 0 10 0C15.523 0 20 4.477 20 10ZM10 18C12.1217 18 14.1566 17.1571 15.6569 15.6569C17.1571 14.1566 18 12.1217 18 10C18 7.87827 17.1571 5.84344 15.6569 4.34315C14.1566 2.84285 12.1217 2 10 2C7.87827 2 5.84344 2.84285 4.34315 4.34315C2.84285 5.84344 2 7.87827 2 10C2 12.1217 2.84285 14.1566 4.34315 15.6569C5.84344 17.1571 7.87827 18 10 18Z" fill="currentcolor"/>
<path fill-rule="evenodd" clip-rule="evenodd" d="M10 4C10.2652 4 10.5196 4.10536 10.7071 4.29289C10.8946 4.48043 11 4.73478 11 5V9.393L13.78 10.837C13.8965 10.8975 14 10.9804 14.0845 11.081C14.169 11.1815 14.2329 11.2977 14.2725 11.4229C14.3121 11.5481 14.3267 11.6799 14.3154 11.8108C14.304 11.9416 14.267 12.069 14.2065 12.1855C14.146 12.302 14.0631 12.4055 13.9625 12.49C13.862 12.5745 13.7458 12.6384 13.6206 12.678C13.3677 12.758 13.0934 12.7343 12.858 12.612L9.97 11.112C9.67749 10.96 9.43234 10.7306 9.26129 10.4488C9.09024 10.167 8.99986 9.84365 9 9.514V5C9 4.73478 9.10536 4.48043 9.29289 4.29289C9.48043 4.10536 9.73478 4 10 4Z" fill="currentcolor"/>
</g>
<defs>
<clipPath id="clip0_2142_6843">
<rect width="20" height="20" fill="white"/>
</clipPath>
</defs>
</svg>
