<svg viewBox="0 0 20 20" xmlns="http://www.w3.org/2000/svg">
<g clip-path="url(#clip0_2376_9615)">
<path d="M12.0245 0H12.3148C13.7573 0 14.6759 2.30713e-07 15.4565 0.209019C16.496 0.487238 17.4439 1.03424 18.2049 1.79502C18.9659 2.5558 19.5132 3.50354 19.7917 4.54293C19.9994 5.32353 19.9994 6.24218 19.9994 7.68467V9.78001C19.9994 10.4703 19.9994 11.0444 19.9607 11.5154C19.922 12.0057 19.8343 12.465 19.6124 12.8998C19.2725 13.5674 18.7301 14.1103 18.0628 14.4507C17.6267 14.6726 17.1674 14.7603 16.6771 14.799C16.2061 14.8378 15.632 14.8378 14.943 14.8378H12.7986C12.1096 14.8378 11.5342 14.8378 11.0645 14.799C10.5742 14.7603 10.1149 14.6726 9.68011 14.4507C9.01254 14.1108 8.46966 13.5684 8.12924 12.9011C7.90732 12.465 7.81958 12.0057 7.78088 11.5154C7.74217 11.0444 7.74217 10.4703 7.74217 9.78001V4.28359C7.74217 3.60751 7.74217 3.08496 7.86345 2.63209C8.0245 2.03045 8.34108 1.48181 8.78136 1.0413C9.22165 0.60079 9.77013 0.283932 10.3717 0.122572C10.8258 -2.69165e-07 11.3484 0 12.0245 0ZM12.1509 1.93665C11.2877 1.93665 11.0465 1.94439 10.8736 1.99213C10.6002 2.06528 10.3509 2.20906 10.1507 2.40904C9.95053 2.60901 9.80647 2.85814 9.73301 3.13141C9.68527 3.30559 9.67753 3.54687 9.67753 4.40875V9.74131C9.67753 10.4793 9.67753 10.9761 9.70978 11.3567C9.73946 11.7283 9.79365 11.905 9.853 12.0224C10.0078 12.3257 10.2543 12.5721 10.5588 12.7269C10.6749 12.7863 10.8516 12.8405 11.2232 12.8701C11.6039 12.9011 12.1006 12.9024 12.8386 12.9024H14.903C15.641 12.9024 16.1378 12.9024 16.5184 12.8701C16.89 12.8405 17.0667 12.7863 17.1828 12.7269C17.4866 12.5725 17.7337 12.3259 17.8886 12.0224C17.948 11.905 18.0022 11.7283 18.0318 11.358C18.0628 10.9761 18.0641 10.4806 18.0641 9.74131V7.84853C18.0641 7.27308 18.0641 6.81891 18.0563 6.4512H15.8062C15.2073 6.4512 14.633 6.21331 14.2096 5.78987C13.7861 5.36643 13.5482 4.79212 13.5482 4.19328V1.9431C13.0825 1.93645 12.6167 1.93516 12.1509 1.93665ZM15.4836 2.25792V4.19328C15.4836 4.37133 15.6281 4.51584 15.8062 4.51584H17.7415C17.3149 3.49566 16.5038 2.6845 15.4836 2.25792ZM5.47909 5.16096H5.48425C5.74089 5.16096 5.98703 5.26291 6.1685 5.44438C6.34998 5.62586 6.45193 5.87199 6.45193 6.12864C6.45193 6.38528 6.34998 6.63141 6.1685 6.81289C5.98703 6.99436 5.74089 7.09632 5.48425 7.09632C5.16169 7.09632 4.54625 7.09632 3.94887 7.12986C3.68038 7.14285 3.4126 7.16782 3.14634 7.2047C3.03533 7.21989 2.92542 7.24231 2.81733 7.27179C2.51336 7.4265 2.26627 7.67359 2.11156 7.97755C2.05221 8.09367 1.99802 8.27043 1.96835 8.64202C1.93738 9.02264 1.93609 9.51939 1.93609 10.2574V14.9023C1.93609 15.6403 1.93609 16.137 1.96835 16.5176C1.99802 16.8892 2.05221 17.066 2.11156 17.1821C2.26639 17.4866 2.51283 17.733 2.81733 17.8879C2.93345 17.9472 3.11021 18.0014 3.48051 18.0311C3.86242 18.0621 4.35787 18.0634 5.09718 18.0634H7.16156C7.89958 18.0634 8.39632 18.0634 8.77694 18.0311C9.14853 18.0014 9.32529 17.9472 9.4427 17.8879C9.74619 17.733 9.9928 17.4859 10.1472 17.1821C10.2246 17.0286 10.2736 16.8441 10.2994 16.6789C10.3105 16.6032 10.3183 16.527 10.3226 16.4506V16.4454C10.3235 16.1887 10.4263 15.943 10.6084 15.7621C10.7904 15.5812 11.0369 15.4801 11.2936 15.4809C11.5502 15.4818 11.796 15.5846 11.9769 15.7666C12.1577 15.9487 12.2589 16.1952 12.258 16.4518V16.5086L12.2516 16.6209C12.2424 16.7413 12.2291 16.8614 12.2116 16.9808C12.1664 17.2634 12.0748 17.6647 11.8709 18.0621C11.5311 18.7296 10.9886 19.2725 10.3214 19.6129C9.88526 19.8349 9.42593 19.9226 8.93564 19.9613C8.4647 20 7.89055 20 7.20027 20H5.05847C4.36819 20 3.79404 20 3.3231 19.9613C2.83281 19.9226 2.37348 19.8349 1.93867 19.6129C1.2711 19.2731 0.728222 18.7306 0.387805 18.0634C0.165883 17.6273 0.0781471 17.1679 0.0394399 16.6776C0.000732693 16.2067 0.000732422 15.6325 0.000732422 14.9423V10.22C0.000732422 9.52971 0.000732693 8.95555 0.0394399 8.48461C0.0781471 7.99432 0.165883 7.535 0.387805 7.10019C0.727783 6.43194 1.27071 5.88856 1.93867 5.54803C2.22769 5.39965 2.58637 5.33127 2.86248 5.28998C3.17085 5.24482 3.51405 5.21644 3.84178 5.19708C4.49593 5.16096 5.15524 5.16096 5.47909 5.16096Z" fill="currentcolor"/>
</g>
<defs>
<clipPath id="clip0_2376_9615">
<rect width="20" height="20" fill="white"/>
</clipPath>
</defs>
</svg>
