<svg viewBox="0 0 20 20" xmlns="http://www.w3.org/2000/svg">
<path fill-rule="evenodd" clip-rule="evenodd" d="M17.2 4.69413H2.79997V5.54117H17.2V4.69413ZM2.79997 15.7059V7.23529H17.2V15.7059H2.79997ZM1 3V17.4H19V3H1ZM14.5 9.3V14.7H16.3V9.3H14.5ZM11.8 14.7V11.1H13.6V14.7H11.8ZM9.10001 13.8V14.7H10.9V13.8H9.10001Z" fill="currentcolor"/>
<path fill-rule="evenodd" clip-rule="evenodd" d="M6.40002 14.7004C8.13971 14.7004 9.55 13.2901 9.55 11.5504C9.55 9.81068 8.13971 8.40039 6.40002 8.40039C4.66029 8.40039 3.25 9.81068 3.25 11.5504C3.25 13.2901 4.66029 14.7004 6.40002 14.7004ZM7.89667 12.5504C8.09443 12.2544 8.19999 11.9064 8.19999 11.5504H6.40002V9.75039C6.044 9.75035 5.69597 9.85591 5.39995 10.0537C5.10394 10.2515 4.87323 10.5326 4.73703 10.8616C4.63515 11.1075 4.58908 11.3729 4.60213 11.6387C4.61517 11.9046 4.68702 12.1642 4.81249 12.399C4.93796 12.6337 5.11392 12.8377 5.32771 12.9962C5.5415 13.1548 5.7878 13.2639 6.04885 13.3158C6.39802 13.3853 6.75993 13.3496 7.08884 13.2134C7.41774 13.0771 7.69887 12.8464 7.89667 12.5504Z" fill="currentcolor"/>
</svg>
