<svg viewBox="0 0 20 20" xmlns="http://www.w3.org/2000/svg">
<path fill-rule="evenodd" clip-rule="evenodd" d="M16.2791 10C16.2791 6.53217 13.4678 3.72093 10 3.72093C6.53217 3.72093 3.72093 6.53217 3.72093 10C3.72093 13.4678 6.53217 16.2791 10 16.2791C13.4678 16.2791 16.2791 13.4678 16.2791 10ZM14.8837 10C14.8837 7.3028 12.6972 5.11628 10 5.11628C7.3028 5.11628 5.11628 7.3028 5.11628 10C5.11628 12.6972 7.3028 14.8837 10 14.8837C12.6972 14.8837 14.8837 12.6972 14.8837 10Z" fill="black"/>
<path d="M9.30233 18.3721C9.30233 17.9868 9.61469 17.6744 10 17.6744C10.3853 17.6744 10.6977 17.9868 10.6977 18.3721V19.3023C10.6977 19.6876 10.3853 20 10 20C9.61469 20 9.30233 19.6876 9.30233 19.3023V18.3721ZM3.29397 15.7186C3.56641 15.4461 4.00895 15.4461 4.28143 15.7186C4.55357 15.991 4.5536 16.4327 4.28143 16.7051L3.91533 17.0703C3.6429 17.3428 3.20126 17.3427 2.92878 17.0703C2.65658 16.7979 2.65643 16.3561 2.92878 16.0838L3.29397 15.7186ZM15.7186 15.7186C15.991 15.4461 16.4327 15.4461 16.7051 15.7186L17.0712 16.0838C17.3434 16.3562 17.3434 16.7979 17.0712 17.0703C16.7988 17.3428 16.3562 17.3428 16.0838 17.0703L15.7186 16.7051C15.4462 16.4327 15.4463 15.991 15.7186 15.7186ZM1.62791 9.30233C2.01322 9.30233 2.32558 9.61469 2.32558 10C2.32558 10.3853 2.01322 10.6977 1.62791 10.6977H0.697674C0.312359 10.6977 0 10.3853 0 10C0 9.61469 0.312359 9.30233 0.697674 9.30233H1.62791ZM19.3023 9.30233C19.6876 9.30233 20 9.61469 20 10C20 10.3853 19.6876 10.6977 19.3023 10.6977H18.3721C17.9868 10.6977 17.6744 10.3853 17.6744 10C17.6744 9.61469 17.9868 9.30233 18.3721 9.30233H19.3023ZM2.92878 2.92969C3.20124 2.65723 3.64288 2.65723 3.91533 2.92969L4.28143 3.29488C4.55359 3.56728 4.55359 4.00903 4.28143 4.28143C4.00897 4.55389 3.56643 4.55389 3.29397 4.28143L2.92878 3.91624C2.6564 3.64386 2.65655 3.20216 2.92878 2.92969ZM16.0838 2.92969C16.3562 2.65722 16.7988 2.65724 17.0712 2.92969C17.3434 3.20209 17.3434 3.64384 17.0712 3.91624L16.7051 4.28143C16.4327 4.55388 15.991 4.55387 15.7186 4.28143C15.4464 4.00896 15.4462 3.56726 15.7186 3.29488L16.0838 2.92969ZM9.30233 0.697674C9.30233 0.312359 9.61469 0 10 0C10.3853 0 10.6977 0.312359 10.6977 0.697674V1.62791C10.6977 2.01322 10.3853 2.32558 10 2.32558C9.61469 2.32558 9.30233 2.01322 9.30233 1.62791V0.697674Z" fill="currentcolor"/>
</svg>
