<svg viewBox="0 0 20 20" xmlns="http://www.w3.org/2000/svg">
<path d="M10.0004 1C10.926 1 11.8132 1.36796 12.4676 2.02242C13.122 2.67688 13.49 3.5641 13.49 4.48969C13.49 4.59113 13.5724 4.67354 13.6738 4.67354H18.2655C18.4604 4.67354 18.647 4.751 18.7848 4.88879C18.9225 5.02657 19 5.21322 19 5.40807C19 5.60293 18.9225 5.78957 18.7848 5.92735C18.647 6.06514 18.4604 6.1426 18.2655 6.1426H17.4557C17.372 6.1426 17.3009 6.19893 17.279 6.27623L17.2718 6.31839L16.4584 15.8072C16.3841 16.6781 15.9858 17.4894 15.3419 18.0807C14.7381 18.6351 13.96 18.9583 13.1447 18.9964L12.9815 19H7.01943C6.14524 19.0001 5.30295 18.672 4.65901 18.0807C4.05542 17.5264 3.66696 16.7784 3.55951 15.9695V15.9677L3.54247 15.809V15.8072L2.72817 6.31121C2.72102 6.22783 2.65887 6.16145 2.58019 6.14619L2.53714 6.1426H1.73539C1.54054 6.1426 1.35391 6.06514 1.21613 5.92735C1.11263 5.82384 1.0434 5.69286 1.01525 5.55157L1.01345 5.5426L1 5.40807C1 5.21322 1.07835 5.02658 1.21613 4.88879C1.35391 4.751 1.54054 4.67354 1.73539 4.67354H6.32709C6.42853 4.67354 6.51094 4.59113 6.51094 4.48969C6.51094 3.5641 6.87888 2.67688 7.53331 2.02242C8.18774 1.36796 9.0749 1 10.0004 1ZM4.38907 6.1426C4.33748 6.14269 4.28816 6.16424 4.25365 6.20179C4.21895 6.23963 4.20188 6.29071 4.20612 6.3417L5.00518 15.6816C5.04821 16.186 5.2789 16.6568 5.65179 16.9991C6.02474 17.3414 6.51323 17.5312 7.01943 17.5309H12.977L13.1698 17.522C13.607 17.4808 14.0212 17.2977 14.3473 16.9982C14.72 16.6558 14.9509 16.1857 14.9939 15.6816L15.7948 6.3417C15.799 6.29073 15.7819 6.23963 15.7472 6.20179C15.7213 6.17355 15.6868 6.15487 15.6495 6.14709L15.6118 6.1426H4.38907ZM8.16377 9.26547C8.35861 9.26547 8.54525 9.34293 8.68303 9.48072C8.8208 9.6185 8.89826 9.80515 8.89826 10V13.6735C8.89826 13.8684 8.8208 14.055 8.68303 14.1928C8.54525 14.3306 8.35861 14.4081 8.16377 14.4081C7.96892 14.4081 7.78229 14.3306 7.64451 14.1928C7.50673 14.055 7.42928 13.8684 7.42928 13.6735V10C7.42928 9.80515 7.50673 9.6185 7.64451 9.48072C7.78229 9.34293 7.96892 9.26547 8.16377 9.26547ZM11.8371 9.26547C12.032 9.26547 12.2186 9.34293 12.3564 9.48072C12.4942 9.6185 12.5716 9.80515 12.5716 10V13.6735C12.5716 13.8684 12.4942 14.055 12.3564 14.1928C12.2186 14.3306 12.032 14.4081 11.8371 14.4081C11.6423 14.4081 11.4557 14.3306 11.3179 14.1928C11.1801 14.055 11.1026 13.8684 11.1026 13.6735V10C11.1026 9.80515 11.1801 9.6185 11.3179 9.48072C11.4557 9.34293 11.6423 9.26547 11.8371 9.26547ZM10.0004 2.46906C9.46465 2.46906 8.95073 2.68206 8.57182 3.06099C8.19291 3.43992 7.97992 3.95386 7.97992 4.48969C7.97992 4.59113 8.06233 4.67354 8.16377 4.67354H11.8371C11.9386 4.67354 12.021 4.59113 12.021 4.48969C12.021 3.95386 11.808 3.43992 11.4291 3.06099C11.0502 2.68206 10.5362 2.46906 10.0004 2.46906Z" fill="currentcolor"/>
</svg>
