<svg width="20" height="20" viewBox="0 0 20 20" fill="none" xmlns="http://www.w3.org/2000/svg">
<g clip-path="url(#clip0_2061_5444)">
<path fill-rule="evenodd" clip-rule="evenodd" d="M12.4273 1.50625C14.1023 -0.168762 16.8187 -0.168739 18.4937 1.50625C20.1687 3.18127 20.1687 5.8976 18.4937 7.57262L9.9908 16.0755L9.95804 16.1082C9.47122 16.595 9.17983 16.8864 8.85604 17.139C8.47531 17.4359 8.06335 17.691 7.62753 17.8987C7.25874 18.0745 6.87022 18.2039 6.22325 18.4195L6.16856 18.4378L2.49377 19.6624C1.88149 19.8664 1.2061 19.7074 0.749643 19.2512L0.748666 19.2503C0.292643 18.7938 0.133419 18.1184 0.337536 17.5061L1.56214 13.8314L1.57633 13.7888C1.7943 13.1349 1.92449 12.7443 2.1012 12.3734C2.30895 11.9375 2.56399 11.5247 2.86096 11.1439C3.11058 10.8239 3.39808 10.5364 3.87473 10.0598L3.92443 10.0101L12.4273 1.50625ZM13.4884 2.56669C14.5776 1.47765 16.3436 1.47778 17.4328 2.56669C18.522 3.65597 18.522 5.42286 17.4328 6.51215L16.8674 7.07662C16.7618 7.0549 16.6343 7.02184 16.4884 6.97896C16.4266 6.96078 16.361 6.9437 16.2935 6.92028C16.2003 6.88794 16.1032 6.84983 16.0011 6.80708C15.4955 6.59532 14.8936 6.24833 14.3224 5.67716C13.8465 5.20112 13.5273 4.70316 13.3111 4.25819C13.2159 4.06221 13.1395 3.87705 13.0806 3.70741C13.0016 3.47965 12.9533 3.2817 12.9224 3.13124L13.3996 2.65459L13.4884 2.56669ZM4.19591 11.8841C4.36246 11.6946 4.5862 11.4694 4.98497 11.0706L11.7154 4.33826C11.9769 5.03944 12.4401 5.91547 13.2623 6.73766C14.0838 7.55916 14.9588 8.02285 15.6597 8.28453L8.92928 15.0149C8.39743 15.5467 8.17479 15.7679 7.93319 15.9563C7.63841 16.1863 7.31947 16.3834 6.98203 16.5442C6.70541 16.6761 6.4077 16.777 5.69395 17.0149L3.18029 17.8518L2.14807 16.8196L2.98596 14.306L2.98498 14.305C3.22271 13.5919 3.32388 13.2945 3.45568 13.0179C3.61652 12.6805 3.81365 12.3615 4.04357 12.0667L4.19591 11.8841Z" fill="#1C1C1C"/>
</g>
<defs>
<clipPath id="clip0_2061_5444">
<rect width="20" height="20" fill="white"/>
</clipPath>
</defs>
</svg>
