<svg viewBox="0 0 20 20" xmlns="http://www.w3.org/2000/svg">
<path fill-rule="evenodd" clip-rule="evenodd" d="M10.906 13.8332C12.6555 13.5686 14.3856 12.6061 15.485 11.2325C16.5845 9.85892 17.1179 8.12438 16.9781 6.37793C16.8383 4.63149 16.0355 3.00276 14.7313 1.81948C13.4272 0.636196 11.7184 -0.0138218 9.94885 0.000222937C8.17931 0.0142677 6.48034 0.691331 5.19379 1.89518C3.90724 3.09902 3.12861 4.7403 3.01456 6.48876C2.90052 8.23722 3.45953 9.96309 4.57911 11.3191C5.69868 12.6751 7.45851 13.6098 9.21169 13.8466L9.22027 15.0023L7.24357 15.0179C7.01889 15.0197 6.80408 15.1118 6.64641 15.274C6.48873 15.4362 6.4011 15.6551 6.40279 15.8827C6.40448 16.1103 6.49535 16.3278 6.65542 16.4875C6.81549 16.6471 7.03164 16.7358 7.25632 16.7341L9.23302 16.7185L9.24365 18.1486C9.24534 18.3762 9.33621 18.5937 9.49628 18.7534C9.65635 18.913 9.8725 19.0017 10.0972 19C10.3219 18.9982 10.5367 18.9061 10.6943 18.7439C10.852 18.5818 10.9397 18.3628 10.938 18.1352L10.9273 16.7051L12.904 16.6895C13.1287 16.6877 13.3435 16.5956 13.5012 16.4335C13.6589 16.2713 13.7465 16.0523 13.7448 15.8248C13.7431 15.5972 13.6523 15.3796 13.4922 15.22C13.3321 15.0603 13.116 14.9716 12.8913 14.9734L10.9146 14.989L10.906 13.8332ZM5.82305 4.2126C5.27959 5.03086 4.99327 5.99012 5.0003 6.96909C5.01192 8.28163 5.54871 9.53569 6.49298 10.4564C7.43726 11.377 8.71198 11.8892 10.0377 11.8806C11.0265 11.8726 11.9909 11.5744 12.8089 11.0239C13.627 10.4734 14.262 9.69514 14.6336 8.78765C15.0052 7.88015 15.0968 6.88413 14.8968 5.92551C14.6967 4.96689 14.2141 4.08872 13.5098 3.40203C12.8055 2.71535 11.9112 2.25097 10.94 2.06763C9.96881 1.88429 8.96431 1.99022 8.05351 2.37201C7.14271 2.75381 6.36651 3.39433 5.82305 4.2126Z" fill="currentcolor"/>
</svg>
