<svg viewBox="0 0 20 20" fill="none" xmlns="http://www.w3.org/2000/svg">
<path fill-rule="evenodd" clip-rule="evenodd" d="M10 1.39535C12.2123 1.39535 13.8016 1.39719 15.0109 1.55977C16.1999 1.71967 16.9166 2.02374 17.4464 2.5536C17.9763 3.08346 18.2803 3.80009 18.4402 4.9891C18.6028 6.19838 18.6047 7.7877 18.6047 10C18.6047 12.2123 18.6028 13.8016 18.4402 15.0109C18.2803 16.1999 17.9763 16.9166 17.4464 17.4464C16.9166 17.9763 16.1999 18.2803 15.0109 18.4402C13.8016 18.6028 12.2123 18.6047 10 18.6047C7.7877 18.6047 6.19838 18.6028 4.9891 18.4402C3.80009 18.2803 3.08346 17.9763 2.5536 17.4464C2.02374 16.9166 1.71967 16.1999 1.55977 15.0109C1.39719 13.8016 1.39535 12.2123 1.39535 10C1.39535 7.7877 1.39719 6.19838 1.55977 4.9891C1.71967 3.80008 2.02373 3.08346 2.5536 2.5536C3.08346 2.02373 3.80008 1.71967 4.9891 1.55977C6.19838 1.39719 7.7877 1.39535 10 1.39535ZM12.7625 7.18114C13.035 6.90868 13.4766 6.90868 13.7491 7.18114C14.0216 7.4536 14.0216 7.89524 13.7491 8.1677L9.09793 12.8189C8.82547 13.0913 8.38383 13.0913 8.11137 12.8189L6.25091 10.9584C5.97845 10.6859 5.97845 10.2443 6.25091 9.97184C6.52337 9.69938 6.965 9.69938 7.23746 9.97184L8.60465 11.339L12.7625 7.18114Z" fill="currentcolor"/>
<path fill-rule="evenodd" clip-rule="evenodd" d="M10 6.04585e-07L10.0613 0C12.2047 -1.62014e-05 13.8849 -2.86657e-05 15.1962 0.176236C16.5402 0.356924 17.6006 0.734647 18.433 1.56704C19.2653 2.39942 19.6431 3.45985 19.8238 4.80378C20 6.1151 20 7.79528 20 9.93859V10V10.0615C20 12.2047 20 13.8849 19.8238 15.1962C19.6431 16.5402 19.2654 17.6006 18.433 18.433C17.6006 19.2654 16.5402 19.6431 15.1962 19.8238C13.8849 20 12.2047 20 10.0615 20H10H9.93859C7.79528 20 6.1151 20 4.80378 19.8238C3.45985 19.6431 2.39942 19.2653 1.56704 18.433C0.734647 17.6006 0.356924 16.5402 0.176236 15.1962C-2.86657e-05 13.8849 -1.62014e-05 12.2047 0 10.0613L6.04585e-07 10L0 9.93872C-1.618e-05 7.79535 -2.86241e-05 6.11513 0.176236 4.80378C0.356925 3.45984 0.73466 2.39942 1.56704 1.56704C2.39942 0.73466 3.45984 0.356925 4.80378 0.176236C6.11513 -2.86241e-05 7.79535 -1.618e-05 9.93872 0L10 6.04585e-07ZM10 1.39535C12.2123 1.39535 13.8016 1.39719 15.0109 1.55977C16.1999 1.71967 16.9166 2.02374 17.4464 2.5536C17.9763 3.08346 18.2803 3.80009 18.4402 4.9891C18.6028 6.19838 18.6047 7.7877 18.6047 10C18.6047 12.2123 18.6028 13.8016 18.4402 15.0109C18.2803 16.1999 17.9763 16.9166 17.4464 17.4464C16.9166 17.9763 16.1999 18.2803 15.0109 18.4402C13.8016 18.6028 12.2123 18.6047 10 18.6047C7.7877 18.6047 6.19838 18.6028 4.9891 18.4402C3.80009 18.2803 3.08346 17.9763 2.5536 17.4464C2.02374 16.9166 1.71967 16.1999 1.55977 15.0109C1.39719 13.8016 1.39535 12.2123 1.39535 10C1.39535 7.7877 1.39719 6.19838 1.55977 4.9891C1.71967 3.80008 2.02373 3.08346 2.5536 2.5536C3.08346 2.02373 3.80008 1.71967 4.9891 1.55977C6.19838 1.39719 7.7877 1.39535 10 1.39535Z" fill="currentcolor"/>
</svg>
