<svg viewBox="0 0 20 20" xmlns="http://www.w3.org/2000/svg">
<g clip-path="url(#clip0_2517_12580)">
<path d="M9.67306 20C9.46001 20 9.28053 19.9308 9.13463 19.7925C8.98846 19.6545 8.91538 19.4825 8.91538 19.2765V11.1224L0.125278 0.881343C-0.0177892 0.697512 -0.0383195 0.504726 0.0636868 0.302985C0.165693 0.100995 0.33226 0 0.563388 0H19.4366C19.6677 0 19.8343 0.100995 19.9363 0.302985C20.0383 0.504726 20.0178 0.697512 19.8747 0.881343L11.0846 11.1224V19.2765C11.0846 19.4825 11.0131 19.6545 10.87 19.7925C10.727 19.9308 10.5489 20 10.3358 20H9.67306ZM10 9.32836L16.2753 1.9403H3.68594L10 9.32836Z" fill="currentcolor"/>
</g>
<defs>
<clipPath id="clip0_2517_12580">
<rect width="20" height="20" fill="white"/>
</clipPath>
</defs>
</svg>
