<svg viewBox="0 0 21 20" fill="none" xmlns="http://www.w3.org/2000/svg">
<path d="M17.2748 10.9496C17.8395 10.9531 18.3255 10.9556 18.7133 11.0102C19.122 11.0676 19.5125 11.1957 19.8286 11.5151C20.1447 11.8351 20.2683 12.2283 20.3207 12.6381C20.3705 13.026 20.3662 13.5114 20.3627 14.0746V14.0776L20.3618 14.1069C20.3583 14.6696 20.3576 15.1551 20.3032 15.5424C20.2457 15.9514 20.1173 16.3419 19.7983 16.6576C19.4785 16.9736 19.086 17.0973 18.6762 17.1498C18.2878 17.1997 17.801 17.1953 17.2368 17.1918H17.2338L17.2055 17.1908C16.6431 17.1874 16.1571 17.1867 15.77 17.1322C15.3612 17.0747 14.9695 16.9465 14.6537 16.6274C14.338 16.3074 14.2159 15.9143 14.1635 15.5053C14.1137 15.117 14.1171 14.6305 14.1205 14.0658V14.0375C14.124 13.4731 14.1266 12.9867 14.1811 12.599C14.2386 12.1907 14.3665 11.7988 14.686 11.4828L14.809 11.3725C15.1045 11.1369 15.4512 11.0384 15.809 10.9926C16.1969 10.9429 16.6818 10.9462 17.2455 10.9496H17.2748ZM6.75727 3.63909H6.8266C8.22749 3.64763 9.34556 3.6545 10.2211 3.77776C11.1218 3.90438 11.863 4.16712 12.4477 4.75823C13.0324 5.35021 13.2862 6.09562 13.4018 6.99846C13.5143 7.87469 13.507 8.99177 13.4985 10.392V10.4614L13.4916 11.3412C13.4829 12.1805 13.4636 12.9013 13.4008 13.5151V13.517L13.3598 13.8539V13.8559C13.2332 14.7564 12.971 15.4978 12.3803 16.0824C11.7884 16.6671 11.0427 16.9209 10.1401 17.0365C9.48272 17.121 8.68914 17.1386 7.74262 17.1381L6.74457 17.1332H6.67523C5.27464 17.1247 4.15715 17.1178 3.28168 16.9946C2.38111 16.8679 1.63885 16.6061 1.05414 16.0151C0.469349 15.4231 0.216658 14.6775 0.101015 13.7748C-0.0115667 12.8984 -0.004205 11.7801 0.00433517 10.3793V10.31C0.012874 8.90939 0.019796 7.79189 0.143007 6.91643C0.269653 6.01574 0.53222 5.27363 1.12348 4.68889L1.12543 4.68694L1.23383 4.58537L1.2348 4.58342C1.80822 4.07269 2.51739 3.84414 3.36371 3.73577C4.23995 3.62328 5.35702 3.63055 6.75727 3.63909ZM17.2534 12.1996C16.6479 12.1959 16.256 12.1941 15.9672 12.2309C15.6979 12.2655 15.6104 12.3248 15.562 12.3725C15.5602 12.3742 15.5578 12.3749 15.5561 12.3764C15.5102 12.4243 15.4541 12.5131 15.4174 12.7739C15.3843 13.0102 15.3755 13.3221 15.3715 13.7739L15.3686 14.268C15.3663 14.7607 15.3697 15.095 15.4018 15.3461C15.4348 15.6034 15.489 15.6934 15.5346 15.7426L15.5883 15.7856L15.643 15.8168C15.7027 15.8446 15.7945 15.8728 15.9448 15.894C16.2332 15.9343 16.625 15.9381 17.2309 15.9418C17.8364 15.9455 18.2283 15.9474 18.517 15.9106C18.7755 15.8774 18.8635 15.8216 18.9125 15.7758L18.9604 15.7211C18.9704 15.7064 18.978 15.6933 18.9838 15.6811L18.9868 15.6752C19.0162 15.6138 19.0299 15.5803 19.0385 15.5512C19.0465 15.5241 19.0519 15.493 19.0561 15.436L19.0571 15.4272L19.059 15.4213L19.06 15.4086V15.4057L19.0649 15.3686C19.1051 15.0802 19.109 14.6876 19.1127 14.0824C19.1155 13.6281 19.1169 13.2941 19.102 13.0336L19.0815 12.7963C19.0553 12.5925 19.0148 12.4947 18.9789 12.4399L18.935 12.3871C18.8865 12.3405 18.7984 12.2831 18.5385 12.2465C18.2502 12.2063 17.8587 12.2033 17.2534 12.1996ZM2.67719 10.0434C2.4886 10.036 2.30409 10.1001 2.16156 10.2231L1.31391 10.9526C1.30929 12.0975 1.31896 12.9448 1.40375 13.6078C1.5009 14.3646 1.68682 14.7856 1.98871 15.0912C2.29079 15.3964 2.7098 15.5875 3.46527 15.6938C4.23997 15.8023 5.2646 15.8109 6.7182 15.8197C8.17194 15.8286 9.19711 15.8329 9.97309 15.7338C10.7298 15.6367 11.1509 15.4508 11.4565 15.1489L11.5414 15.0571C11.606 14.982 11.662 14.9 11.7123 14.8139L9.81391 13.0844C9.61813 12.9061 9.36726 12.8002 9.10297 12.7826C8.87179 12.7674 8.64232 12.8213 8.44281 12.936L8.35883 12.9887L8.17621 13.1156C7.81353 13.3671 7.37341 13.4827 6.93402 13.4418C6.4947 13.401 6.08388 13.2058 5.77387 12.892L3.17719 10.2641C3.04463 10.1299 2.86572 10.0509 2.67719 10.0434ZM6.78461 4.95256C5.33107 4.9437 4.30665 4.93951 3.5307 5.0385C2.7736 5.13562 2.35114 5.32289 2.04535 5.62444C2.044 5.62575 2.04187 5.62614 2.04047 5.62737C1.73808 5.929 1.54864 6.34796 1.44281 7.10002C1.36525 7.65224 1.34035 8.33289 1.32855 9.2094C1.71968 8.8822 2.21841 8.70985 2.72894 8.72991C3.25043 8.75058 3.74412 8.9701 4.11078 9.34123L6.70746 11.9692C6.80023 12.0629 6.92443 12.1211 7.05609 12.1332C7.18731 12.1452 7.31891 12.1106 7.42719 12.0356L7.60883 11.9096C8.07066 11.5892 8.6281 11.4341 9.18891 11.4711C9.7499 11.5083 10.283 11.7349 10.6987 12.1137L12.0903 13.3822C12.1663 12.6451 12.1772 11.6984 12.185 10.4194C12.1939 8.96581 12.1981 7.9414 12.0991 7.16545C12.002 6.40866 11.8154 5.98684 11.5141 5.68108C11.212 5.37589 10.7924 5.18391 10.0366 5.07756C9.26198 4.9692 8.23777 4.96142 6.78461 4.95256ZM15.5161 12.3979C15.5148 12.3982 15.5137 12.3987 15.5131 12.3989C15.5143 12.3985 15.5178 12.398 15.5209 12.3969C15.5219 12.3966 15.5227 12.3954 15.5239 12.3949C15.5205 12.3961 15.5178 12.3974 15.5161 12.3979ZM17.3139 3.87834C17.8776 3.88178 18.362 3.88339 18.7495 3.93791C19.1581 3.99539 19.5487 4.12344 19.8647 4.4428C20.1808 4.76288 20.3035 5.15631 20.3559 5.56584C20.4056 5.95391 20.4013 6.43981 20.3979 7.00334V7.03166L20.3871 7.81682C20.3795 8.05746 20.3656 8.27612 20.3383 8.47014C20.2809 8.87892 20.1536 9.27041 19.8344 9.58635C19.5146 9.90225 19.1218 10.025 18.7123 10.0776C18.3242 10.1274 17.8377 10.123 17.2739 10.1196H17.2436C16.6796 10.1161 16.1929 10.1146 15.8051 10.06C15.3963 10.0024 15.0056 9.87414 14.6899 9.5551C14.374 9.23508 14.2521 8.84206 14.1996 8.43303C14.1746 8.23801 14.1625 8.01931 14.1577 7.77971V7.77776L14.1567 6.99553V6.96526C14.1601 6.40078 14.1627 5.91449 14.2172 5.52678C14.2747 5.11862 14.4018 4.72749 14.7211 4.41155L14.8442 4.30119C15.1396 4.06532 15.4862 3.96621 15.8442 3.92034C16.2321 3.87061 16.7176 3.87393 17.2817 3.87737H17.2846L17.3139 3.87834ZM9.21332 6.09026C9.71049 6.09329 10.1861 6.29416 10.5356 6.64787C10.8849 7.00154 11.0795 7.479 11.0766 7.976C11.0736 8.4732 10.8737 8.94977 10.52 9.29924C10.1662 9.64856 9.68794 9.8423 9.19086 9.83928C8.69382 9.83624 8.21803 9.6362 7.86859 9.28264C7.51928 8.92892 7.32457 8.4506 7.32758 7.95354C7.33062 7.45636 7.53145 6.98073 7.88519 6.63127C8.23885 6.28202 8.71638 6.08733 9.21332 6.09026ZM17.2895 5.12737C16.6835 5.12367 16.2912 5.1218 16.0024 5.15862C15.7335 5.19316 15.6468 5.25315 15.5981 5.30119C15.596 5.30327 15.5924 5.30337 15.5903 5.3051C15.5445 5.35329 15.49 5.44297 15.4536 5.70159C15.4204 5.93795 15.4117 6.24969 15.4077 6.70159L15.4047 7.19573C15.4025 7.68842 15.4059 8.02278 15.4379 8.27385C15.4709 8.53047 15.5252 8.6201 15.5707 8.66936L15.6332 8.72112C15.6888 8.75636 15.7852 8.79525 15.9799 8.82268C16.2683 8.86304 16.6601 8.86586 17.2661 8.86955C17.8719 8.87325 18.2643 8.87514 18.5532 8.8383C18.8177 8.80429 18.9041 8.74733 18.9526 8.70061L18.9946 8.65178C19.0047 8.63704 19.0133 8.62285 19.02 8.60881C19.0207 8.6072 19.0211 8.6055 19.0219 8.60393C19.0522 8.54076 19.0662 8.50738 19.0746 8.47893C19.0825 8.45211 19.0881 8.42164 19.0922 8.36565L19.0932 8.35002L19.0961 8.33147L19.101 8.29631C19.1413 8.00796 19.1452 7.61523 19.1489 7.01018C19.1526 6.40481 19.1534 6.01289 19.1166 5.72405C19.0908 5.52259 19.0514 5.42561 19.0161 5.37053L18.9721 5.31487C18.9239 5.26822 18.8356 5.21197 18.5746 5.17522C18.2863 5.13492 17.8947 5.13106 17.2895 5.12737ZM9.20551 7.40373C9.05655 7.40288 8.91377 7.46141 8.80805 7.56584C8.70233 7.67028 8.64204 7.81244 8.64105 7.96135C8.64017 8.11023 8.69781 8.25403 8.80219 8.35979C8.90665 8.46553 9.04973 8.52484 9.19867 8.5258C9.3476 8.52671 9.49132 8.46913 9.59711 8.36467C9.70283 8.26017 9.76222 8.11715 9.76312 7.96819C9.76398 7.81938 9.70624 7.67643 9.60199 7.57073C9.49749 7.46495 9.35451 7.40465 9.20551 7.40373Z" fill="currentcolor"/>
</svg>
