<svg viewBox="0 0 20 20" fill="none" xmlns="http://www.w3.org/2000/svg">
<path fill-rule="evenodd" clip-rule="evenodd" d="M6.76871 2.44228C5.97821 2.24569 5.1464 2.29887 4.38681 2.59308C3.62716 2.88736 2.97633 3.40864 2.52453 4.08653C2.07282 4.76431 1.84163 5.56518 1.86228 6.37941C1.88301 7.19375 2.15515 7.98195 2.64081 8.63595C2.83978 8.90388 3.07203 9.14236 3.32849 9.34998C1.38097 10.1982 0 12.0159 0 14.1856C8.28535e-05 14.5708 0.312411 14.8832 0.697674 14.8832C1.08294 14.8832 1.39527 14.5708 1.39535 14.1856C1.39535 13.9322 1.42298 13.6831 1.47529 13.4406C1.84928 11.6876 2.78674 10.8116 4.6628 10.3659C4.67344 10.3633 4.68409 10.3608 4.69477 10.3583C5.05025 10.2758 5.42503 10.2321 5.81395 10.2321C5.82801 10.2321 5.84189 10.2302 5.85574 10.2293C5.97559 10.2281 6.09515 10.2215 6.21457 10.2094C6.40118 10.8288 6.73897 11.3987 7.20476 11.8645C7.30293 11.9627 7.4058 12.055 7.51272 12.1416C5.56618 12.9902 4.18605 14.8073 4.18605 16.9763C4.18613 17.3615 4.49846 17.6739 4.88372 17.6739C5.26898 17.6739 5.58131 17.3615 5.5814 16.9763V16.959C5.59174 14.8443 7.50208 13.0229 10 13.0229C12.4163 13.0229 14.2817 14.7273 14.4104 16.7528C14.4151 16.8269 14.4186 16.9014 14.4186 16.9763C14.4187 17.3615 14.731 17.6739 15.1163 17.6739C15.5015 17.6739 15.8139 17.3615 15.814 16.9763C15.814 14.807 14.4333 12.9901 12.4864 12.1416C12.5935 12.0549 12.6969 11.9628 12.7952 11.8645C13.261 11.3988 13.5979 10.8287 13.7845 10.2094C13.9166 10.2225 14.0512 10.2318 14.186 10.2321C14.4966 10.2321 14.7982 10.2595 15.0881 10.3129C15.0984 10.3148 15.1086 10.3167 15.1188 10.3187C17.0245 10.6795 18.0007 11.5225 18.4738 13.2353C18.5591 13.5416 18.6047 13.8601 18.6047 14.1856C18.6047 14.5708 18.9171 14.8832 19.3023 14.8832C19.6876 14.8832 19.9999 14.5708 20 14.1856C20 12.0154 18.618 10.198 16.6697 9.34998C17.1552 8.95733 17.544 8.45621 17.7989 7.88196C18.1092 7.18266 18.2106 6.40808 18.0896 5.65267C17.9685 4.89735 17.6307 4.19324 17.1176 3.62596C16.6044 3.05872 15.9374 2.65271 15.198 2.45681C14.4585 2.26095 13.6774 2.2842 12.9506 2.52313C12.224 2.76208 11.5818 3.20674 11.1028 3.8031C10.784 4.20016 10.5482 4.65367 10.4024 5.13668C10.269 5.12302 10.1347 5.11579 10 5.11579C9.86472 5.11579 9.72982 5.1229 9.59575 5.13668C9.43576 4.60722 9.16848 4.11375 8.80269 3.69137C8.26937 3.07555 7.55929 2.63888 6.76871 2.44228ZM10.9793 6.70564C10.6689 6.57708 10.3359 6.51124 10 6.51124C9.66406 6.51124 9.33108 6.57708 9.02071 6.70564C8.71042 6.8342 8.42881 7.0232 8.19132 7.26069C7.95381 7.4982 7.76481 7.77977 7.63626 8.09009C7.50771 8.40045 7.44186 8.73343 7.44186 9.06937C7.44188 9.7478 7.71159 10.3983 8.19132 10.8781C8.61115 11.2979 9.16175 11.5567 9.74746 11.6148L10 11.6275L10.2525 11.6148C10.8382 11.5567 11.3888 11.2979 11.8087 10.8781C12.2884 10.3983 12.5581 9.7478 12.5581 9.06937C12.5581 8.73343 12.4923 8.40045 12.3637 8.09009C12.2352 7.77977 12.0462 7.4982 11.8087 7.26069C11.5712 7.0232 11.2896 6.8342 10.9793 6.70564ZM6.43169 3.79685C5.92019 3.66969 5.38156 3.70365 4.89008 3.89405C4.3987 4.08449 3.97778 4.42209 3.6855 4.86062C3.3933 5.29912 3.24429 5.81731 3.25763 6.34408C3.27104 6.87104 3.44662 7.38165 3.7609 7.80484C4.07512 8.22784 4.51233 8.54357 5.01272 8.70873C5.34992 8.81998 5.70482 8.85711 6.05469 8.8241C6.08174 8.38879 6.17986 7.95992 6.3472 7.55593C6.54587 7.0764 6.83774 6.64117 7.20476 6.27413C7.51189 5.967 7.86706 5.7131 8.25581 5.52195C8.15165 5.18622 7.98053 4.87293 7.748 4.60444C7.40294 4.20611 6.94312 3.92403 6.43169 3.79685ZM14.8401 3.80593C14.3617 3.67927 13.8568 3.69406 13.3866 3.84863C12.9164 4.00323 12.5011 4.29118 12.1911 4.67711C11.9889 4.92897 11.8371 5.21543 11.7424 5.52105C12.1318 5.71229 12.4876 5.96652 12.7952 6.27413C13.1623 6.64117 13.4541 7.0764 13.6528 7.55593C13.8201 7.9599 13.9173 8.38881 13.9444 8.8241C14.0233 8.83129 14.1037 8.83572 14.186 8.83591C14.681 8.83581 15.1656 8.69333 15.5805 8.42348C15.9954 8.1536 16.3227 7.76854 16.5234 7.3161C16.7242 6.86362 16.7898 6.36231 16.7115 5.87352C16.6331 5.38497 16.4147 4.92962 16.0828 4.56265C15.7507 4.19556 15.3186 3.93266 14.8401 3.80593Z" fill="currentcolor"/>
</svg>
