<svg viewBox="0 0 20 20" fill="none" xmlns="http://www.w3.org/2000/svg">
<path d="M12.2015 17.9267H12.1515C11.9681 17.9156 11.7935 17.8443 11.6548 17.7237C11.5162 17.6031 11.4212 17.4401 11.3848 17.26L10.1015 10.9517C10.0688 10.7915 9.9898 10.6445 9.87423 10.529C9.75866 10.4134 9.61165 10.3343 9.4515 10.3017L3.14317 9.01835C2.96273 8.98252 2.79921 8.88798 2.67813 8.74948C2.55704 8.61098 2.48519 8.43631 2.47377 8.2527C2.46236 8.06909 2.51202 7.88686 2.61502 7.73443C2.71801 7.582 2.86855 7.46793 3.04317 7.41002L16.3765 2.96835C16.5262 2.90656 16.6906 2.8897 16.8497 2.91984C17.0088 2.94999 17.1556 3.02582 17.2723 3.13809C17.389 3.25035 17.4705 3.39418 17.5067 3.55199C17.543 3.70979 17.5325 3.87475 17.4765 4.02669L13.0348 17.36C12.9769 17.5325 12.864 17.6813 12.7135 17.7836C12.5631 17.8859 12.3832 17.9362 12.2015 17.9267Z" fill="currentcolor"/>
</svg>
