<svg viewBox="0 0 20 20" xmlns="http://www.w3.org/2000/svg">
<path d="M10 4.19443L9.4973 4.66685C9.62884 4.80028 9.81033 4.87567 10 4.87567C10.1897 4.87567 10.3712 4.80028 10.5027 4.66685L10 4.19443ZM7.60563 15.8403C6.19571 14.7551 4.65402 13.6952 3.43097 12.3504C2.23183 11.0319 1.39535 9.49349 1.39535 7.49753H0C0 9.91867 1.03302 11.7658 2.38765 13.2551C3.71835 14.7183 5.41467 15.8887 6.74179 16.9103L7.60563 15.8403ZM1.39535 7.49753C1.39535 5.54384 2.52593 3.90548 4.06917 3.21667C5.56844 2.54749 7.58294 2.72471 9.4973 4.66685L10.5027 3.722C8.23116 1.41757 5.5945 1.03777 3.48908 1.9775C1.42764 2.8976 0 5.03408 0 7.49753H1.39535ZM6.74179 16.9103C7.21828 17.2771 7.7298 17.6682 8.24819 17.964C8.76642 18.2597 9.35777 18.5 10 18.5V17.1375C9.712 17.1375 9.37312 17.0279 8.95219 16.7876C8.53144 16.5476 8.09496 16.217 7.60563 15.8403L6.74179 16.9103ZM13.2582 16.9103C14.5853 15.8887 16.2817 14.7183 17.6124 13.2551C18.967 11.7658 20 9.91867 20 7.49753H18.6047C18.6047 9.49349 17.7682 11.0319 16.569 12.3504C15.346 13.6952 13.8043 14.7551 12.3944 15.8403L13.2582 16.9103ZM20 7.49753C20 5.03408 18.5724 2.8976 16.5109 1.9775C14.4055 1.03777 11.7688 1.41757 9.4973 3.722L10.5027 4.66685C12.417 2.72471 14.4315 2.54749 15.9308 3.21667C17.474 3.90548 18.6047 5.54384 18.6047 7.49753H20ZM12.3944 15.8403C11.905 16.217 11.4686 16.5476 11.0478 16.7876C10.6269 17.0279 10.288 17.1375 10 17.1375V18.5C10.6422 18.5 11.2336 18.2597 11.7518 17.964C12.2702 17.6682 12.7817 17.2771 13.2582 16.9103L12.3944 15.8403Z" fill="currentcolor"/>
</svg>
