<svg viewBox="0 0 20 17" fill="none" xmlns="http://www.w3.org/2000/svg">
<path d="M10 1.64579C12.1279 -0.134818 14.512 -0.384257 16.4634 0.483707C18.5562 1.41472 20 3.5733 20 6.05561C19.9999 8.48325 18.9583 10.3325 17.6084 11.8116C16.2886 13.2579 14.603 14.4175 13.3135 15.4067C12.8482 15.7636 12.336 16.1538 11.8143 16.4504C11.2925 16.747 10.6781 17 10 17C9.32185 17 8.70747 16.747 8.18573 16.4504C7.66402 16.1538 7.15178 15.7636 6.68645 15.4067C5.39695 14.4174 3.71145 13.2579 2.39157 11.8116C1.04173 10.3325 0.000118193 8.48325 0 6.05561C0 3.57329 1.4438 1.41471 3.53662 0.483707C5.48799 -0.384256 7.87213 -0.134819 10 1.64579ZM15.7348 2.05128C14.3479 1.43437 12.4588 1.58105 10.6328 3.42708C10.4665 3.59521 10.2377 3.68946 10 3.68946C9.76229 3.68946 9.53347 3.59521 9.36716 3.42708C7.5412 1.58105 5.65216 1.43437 4.2652 2.05128C2.82423 2.69234 1.76065 4.22275 1.76065 6.05561C1.76077 7.94295 2.55169 9.40093 3.70512 10.6648C4.88879 11.9618 6.37801 12.9815 7.77214 14.0509C8.13342 14.328 8.45861 14.5746 8.76687 14.776L9.07037 14.9621L9.35089 15.1071C9.61369 15.2278 9.82474 15.2779 10 15.2779C10.2337 15.2779 10.5309 15.1888 10.9296 14.9621L11.2331 14.776C11.5414 14.5746 11.8665 14.3281 12.2279 14.0509C13.6219 12.9815 15.1112 11.9618 16.2949 10.6648C17.4483 9.40093 18.2392 7.94295 18.2393 6.05561C18.2393 4.22277 17.1758 2.69235 15.7348 2.05128Z" fill="currentcolor"/>
</svg>
