<svg viewBox="0 0 20 20" xmlns="http://www.w3.org/2000/svg">
<path d="M9.44055 1.21623C9.76039 0.927923 10.2454 0.927923 10.5653 1.21623L18.7194 8.52945C19.0674 8.83885 19.0955 9.37328 18.7827 9.72136C18.4699 10.0694 17.9391 10.0976 17.5912 9.78465L17.31 9.5315V16.7498C17.31 17.9909 16.3013 19 15.0606 19H4.9382C3.69751 19 2.68879 17.9909 2.68879 16.7498V9.5315L2.40761 9.78465C2.05965 10.0941 1.52893 10.0659 1.21612 9.72136C0.90331 9.37679 0.934943 8.84237 1.27938 8.52945L9.44055 1.21623ZM10.0029 2.97773L4.37936 8.02315V16.7533C4.37936 17.0627 4.63242 17.3158 4.94172 17.3158H6.62878V13.6592C6.62878 12.2599 7.76052 11.1277 9.15937 11.1277H10.8464C12.2453 11.1277 13.377 12.2599 13.377 13.6592V17.3158H15.0641C15.3734 17.3158 15.6264 17.0627 15.6264 16.7533V8.02315L10.0029 2.98125V2.97773ZM8.31584 17.3158H11.69V13.6592C11.69 13.1916 11.3139 12.8154 10.8464 12.8154H9.15937C8.69192 12.8154 8.31584 13.1916 8.31584 13.6592V17.3158Z" fill="currentcolor"/>
</svg>
