<svg viewBox="0 0 20 20" xmlns="http://www.w3.org/2000/svg">
<g clip-path="url(#clip0_2142_4998)">
<path d="M10 7.5C9.66848 7.5 9.35054 7.3683 9.11612 7.13388C8.8817 6.89946 8.75 6.58152 8.75 6.25C8.75 5.91848 8.8817 5.60054 9.11612 5.36612C9.35054 5.1317 9.66848 5 10 5C10.3315 5 10.6495 5.1317 10.8839 5.36612C11.1183 5.60054 11.25 5.91848 11.25 6.25C11.25 6.58152 11.1183 6.89946 10.8839 7.13388C10.6495 7.3683 10.3315 7.5 10 7.5ZM9.06667 10.1C9.06667 9.85158 9.16535 9.61333 9.34101 9.43768C9.51667 9.26202 9.75491 9.16333 10.0033 9.16333C10.2518 9.16333 10.49 9.26202 10.6657 9.43768C10.8413 9.61333 10.94 9.85158 10.94 10.1V14.0667C10.94 14.3151 10.8413 14.5533 10.6657 14.729C10.49 14.9046 10.2518 15.0033 10.0033 15.0033C9.75491 15.0033 9.51667 14.9046 9.34101 14.729C9.16535 14.5533 9.06667 14.3151 9.06667 14.0667V10.1Z" fill="currentcolor"/>
<path fill-rule="evenodd" clip-rule="evenodd" d="M20 10C20 15.5167 15.5167 20 10 20C4.48333 20 0 15.5167 0 10C0 4.48333 4.48333 0 10 0C15.5167 0 20 4.48333 20 10ZM18.3333 10C18.3333 14.6 14.6 18.3333 10 18.3333C5.4 18.3333 1.66667 14.6 1.66667 10C1.66667 5.4 5.4 1.66667 10 1.66667C14.6 1.66667 18.3333 5.4 18.3333 10Z" fill="currentcolor"/>
</g>
<defs>
<clipPath id="clip0_2142_4998">
<rect width="20" height="20" fill="white"/>
</clipPath>
</defs>
</svg>
