<svg width="42" height="53" viewBox="0 0 42 53" fill="none" xmlns="http://www.w3.org/2000/svg">
<path d="M21.0115 25.564C22.2947 25.564 23.3913 25.1071 24.3013 24.1932C25.2113 23.2794 25.6654 22.1799 25.6634 20.8947C25.6615 19.6096 25.2036 18.5129 24.2898 17.6049C23.3759 16.6968 22.2764 16.2427 20.9913 16.2427C19.7061 16.2427 18.6095 16.7006 17.7014 17.6164C16.7933 18.5322 16.3393 19.6317 16.3393 20.9149C16.3393 22.1982 16.7962 23.2948 17.7101 24.2048C18.6239 25.1148 19.7244 25.5688 21.0115 25.5669M20.9999 52.3706C14.2182 46.3738 9.11024 40.7811 5.67609 35.5923C2.24001 30.4036 0.521973 25.6814 0.521973 21.4257C0.521973 15.3212 2.50936 10.2864 6.48412 6.32121C10.4608 2.35414 15.2994 0.370605 20.9999 0.370605C26.7004 0.370605 31.539 2.35414 35.5157 6.32121C39.4905 10.2864 41.4779 15.3212 41.4779 21.4257C41.4779 25.6814 39.7608 30.4036 36.3266 35.5923C32.8906 40.7811 27.7816 46.3738 20.9999 52.3706Z" fill="url(#paint0_linear_3344_1787)"/>
<defs>
<linearGradient id="paint0_linear_3344_1787" x1="20.9999" y1="0.370605" x2="20.9999" y2="52.3706" gradientUnits="userSpaceOnUse">
<stop stop-color="#3883F8"/>
<stop offset="1" stop-color="#87D2F9"/>
</linearGradient>
</defs>
</svg>
