<svg viewBox="0 0 20 20"  xmlns="http://www.w3.org/2000/svg">
<path fill-rule="evenodd" clip-rule="evenodd" d="M12.1211 1.87891C11.5585 1.3163 10.7956 1 10 1H3C2.20435 1 1.44152 1.3163 0.878906 1.87891C0.316297 2.44152 0 3.20435 0 4V16C0 16.7956 0.316297 17.5585 0.878906 18.1211C1.44151 18.6837 2.20435 19 3 19H10C10.7957 19 11.5585 18.6837 12.1211 18.1211C12.6837 17.5585 13 16.7957 13 16V14C13 13.4477 12.5523 13 12 13C11.4477 13 11 13.4477 11 14V16C11 16.2652 10.8946 16.5195 10.707 16.707C10.5195 16.8946 10.2652 17 10 17H3C2.73478 17 2.48051 16.8946 2.29297 16.707C2.10543 16.5195 2 16.2652 2 16V4C2 3.73478 2.10543 3.4805 2.29297 3.29297C2.4805 3.10543 2.73478 3 3 3H10L10.0986 3.00488C10.3276 3.02757 10.5429 3.12883 10.707 3.29297C10.8946 3.48051 11 3.73478 11 4V6C11 6.55228 11.4477 7 12 7C12.5523 7 13 6.55228 13 6V4C13 3.20435 12.6837 2.44151 12.1211 1.87891ZM12 11H16.5859L15.293 12.293C14.9024 12.6835 14.9024 13.3165 15.293 13.707C15.6835 14.0976 16.3165 14.0976 16.707 13.707L19.707 10.707C20.0976 10.3165 20.0976 9.68349 19.707 9.29297L16.707 6.29297C16.3165 5.90244 15.6835 5.90244 15.293 6.29297C14.9024 6.68349 14.9024 7.31651 15.293 7.70703L16.5859 9H12H7C6.44772 9 6 9.44771 6 10C6 10.5523 6.44772 11 7 11H12Z" fill="currentcolor"/>
</svg>
