<svg viewBox="0 0 20 20" xmlns="http://www.w3.org/2000/svg">
<path d="M18.9039 0H14.5194C14.2287 0 13.9499 0.115473 13.7443 0.321016C13.5387 0.52656 13.4233 0.805336 13.4233 1.09602C13.4233 1.3867 13.5387 1.66548 13.7443 1.87102C13.9499 2.07656 14.2287 2.19204 14.5194 2.19204H16.2549L13.2661 5.18234C11.7124 4.02128 9.77656 3.49171 7.84811 3.70019C5.91966 3.90867 4.14174 4.83972 2.8721 6.306C1.60246 7.77229 0.935329 9.66498 1.00495 11.6032C1.07457 13.5415 1.87577 15.3814 3.24734 16.7529C4.6189 18.1243 6.45904 18.9254 8.39748 18.9951C10.3359 19.0647 12.2288 18.3976 13.6952 17.1281C15.1616 15.8586 16.0928 14.0808 16.3013 12.1525C16.5098 10.2243 15.9802 8.28861 14.819 6.73503L17.8078 3.74473V5.48009C17.8078 5.77077 17.9232 6.04955 18.1288 6.2551C18.3344 6.46064 18.6132 6.57611 18.9039 6.57611C19.1946 6.57611 19.4734 6.46064 19.679 6.2551C19.8845 6.04955 20 5.77077 20 5.48009V1.09602C20 0.805336 19.8845 0.52656 19.679 0.321016C19.4734 0.115473 19.1946 0 18.9039 0ZM12.5473 15.2036C11.7807 15.9698 10.8041 16.4915 9.74107 16.7028C8.678 16.914 7.57614 16.8054 6.57482 16.3905C5.57349 15.9757 4.71767 15.2733 4.11555 14.3722C3.51343 13.471 3.19205 12.4116 3.19205 11.3278C3.19205 10.244 3.51343 9.18461 4.11555 8.28346C4.71767 7.38231 5.57349 6.67992 6.57482 6.26508C7.57614 5.85023 8.678 5.74158 9.74107 5.95285C10.8041 6.16412 11.7807 6.68583 12.5473 7.45201C13.5733 8.48098 14.1495 9.87475 14.1495 11.3278C14.1495 12.7809 13.5733 14.1746 12.5473 15.2036Z" fill="currentcolor"/>
</svg>
