<svg viewBox="0 0 20 20"  xmlns="http://www.w3.org/2000/svg">
<path d="M16.219 2.44315C16.872 2.95515 17.322 3.78215 17.506 4.64815L17.571 4.67415L19.616 5.62015C19.7302 5.67273 19.8271 5.75686 19.8951 5.86263C19.9631 5.96839 19.9995 6.09139 20 6.21715V18.5841C19.9993 18.6869 19.9747 18.788 19.9284 18.8797C19.882 18.9714 19.815 19.051 19.7326 19.1125C19.6503 19.1739 19.5548 19.2154 19.4537 19.2337C19.3526 19.2521 19.2487 19.2467 19.15 19.2181L13.481 17.6181L6.741 19.4761C6.61942 19.5098 6.49082 19.5084 6.37 19.4721L0.474 17.7171C0.337721 17.6771 0.21799 17.5942 0.132595 17.4807C0.047201 17.3672 0.00069966 17.2292 0 17.0871L0 4.49815C0 4.05815 0.428 3.74215 0.855 3.86615L6.557 5.52715L9.455 4.64015C9.495 4.62815 9.53567 4.61981 9.577 4.61515C9.689 3.95915 10.002 3.32915 10.527 2.71515C11.15 1.98515 12.243 1.55715 13.308 1.50615C14.413 1.45315 15.257 1.68915 16.218 2.44215M1.333 5.38115V16.5961L6.203 18.0451V6.79815L1.333 5.38115ZM9.542 5.99515L7.536 6.60815V17.8871L12.601 16.4931V13.1981C12.601 12.8341 12.9 12.5391 13.268 12.5391C13.636 12.5391 13.934 12.8341 13.934 13.1991V16.3761L18.667 17.7111V6.63615L17.547 6.11615C17.5283 6.22615 17.504 6.33381 17.474 6.43915C17.2574 7.20622 16.8925 7.92341 16.4 8.55015L13.923 11.6431C13.8578 11.7245 13.7745 11.7895 13.6797 11.8329C13.585 11.8764 13.4814 11.8972 13.3772 11.8936C13.273 11.89 13.1711 11.8621 13.0796 11.8122C12.9881 11.7623 12.9095 11.6918 12.85 11.6061L10.535 8.25315C10.1523 7.72048 9.88533 7.24181 9.734 6.81715C9.63885 6.55137 9.57443 6.27557 9.542 5.99515ZM13.372 2.82415C12.646 2.85915 11.9 3.15115 11.545 3.56615C11.118 4.06615 10.908 4.53415 10.866 5.00815C10.816 5.57915 10.85 5.98215 10.992 6.38115C11.097 6.67615 11.306 7.05015 11.629 7.50115L13.44 10.1231L15.35 7.73815C15.7356 7.24587 16.0213 6.68299 16.191 6.08115C16.431 5.24115 16.069 4.00715 15.391 3.47715C14.696 2.93215 14.171 2.78515 13.373 2.82415M13.511 3.52115C14.615 3.52115 15.511 4.40615 15.511 5.49815C15.5076 6.02541 15.295 6.52975 14.92 6.90043C14.545 7.2711 14.0383 7.47781 13.511 7.47515C12.407 7.47515 11.511 6.59015 11.511 5.49815C11.511 4.40615 12.407 3.52115 13.511 3.52115ZM13.511 4.83915C13.4239 4.83862 13.3376 4.85525 13.257 4.88808C13.1763 4.92091 13.103 4.96931 13.041 5.0305C12.9791 5.0917 12.9298 5.16449 12.896 5.24473C12.8622 5.32497 12.8445 5.41108 12.844 5.49815C12.844 5.86215 13.143 6.15715 13.511 6.15715C13.5981 6.15754 13.6844 6.14078 13.7649 6.10783C13.8455 6.07487 13.9188 6.02637 13.9807 5.96508C14.0425 5.90379 14.0917 5.83093 14.1254 5.75064C14.1591 5.67035 14.1766 5.58421 14.177 5.49715C14.1757 5.32166 14.1048 5.15385 13.98 5.0305C13.8551 4.90716 13.6865 4.83835 13.511 4.83915Z" fill="currentcolor"/>
</svg>
