<svg viewBox="0 0 20 20" fill="none" xmlns="http://www.w3.org/2000/svg">
<path d="M3.32121 7.94775C3.32113 7.29511 3.48328 6.65268 3.79307 6.07825C4.10286 5.50381 4.55058 5.01539 5.09596 4.65692C5.64134 4.29844 6.26727 4.08115 6.91745 4.02458C7.56764 3.96802 8.22169 4.07396 8.82078 4.33287C9.41987 4.59179 9.9452 4.99556 10.3495 5.50786C10.7539 6.02017 11.0245 6.62495 11.1371 7.2678C11.2498 7.91065 11.2008 8.57142 10.9947 9.19067C10.7886 9.80991 10.4319 10.3682 9.95646 10.8154C10.8528 11.2505 11.631 11.8953 12.2251 12.6951C12.8193 13.4949 13.2119 14.4261 13.3697 15.4099C13.3871 15.5193 13.3827 15.6312 13.3568 15.739C13.331 15.8467 13.2842 15.9484 13.219 16.0381C13.1539 16.1277 13.0717 16.2037 12.9772 16.2616C12.8827 16.3196 12.7777 16.3583 12.6683 16.3757C12.5588 16.393 12.447 16.3887 12.3392 16.3628C12.2314 16.337 12.1298 16.2901 12.0401 16.225C11.9504 16.1599 11.8744 16.0777 11.8165 15.9832C11.7586 15.8887 11.7198 15.7837 11.7025 15.6743C11.5337 14.6171 10.9936 13.6547 10.1792 12.96C9.36472 12.2652 8.32925 11.8835 7.25871 11.8835C6.18817 11.8835 5.15271 12.2652 4.33825 12.96C3.52379 13.6547 2.9837 14.6171 2.81496 15.6743C2.79753 15.7837 2.7587 15.8887 2.7007 15.9832C2.6427 16.0776 2.56667 16.1597 2.47693 16.2248C2.38719 16.2899 2.28552 16.3367 2.17771 16.3625C2.06989 16.3883 1.95806 16.3926 1.84859 16.3751C1.73911 16.3577 1.63414 16.3189 1.53968 16.2609C1.44521 16.2029 1.36309 16.1268 1.29801 16.0371C1.23292 15.9474 1.18615 15.8457 1.16037 15.7379C1.13458 15.6301 1.13028 15.5182 1.14771 15.4088C1.30495 14.4251 1.69738 13.4939 2.29163 12.6944C2.88588 11.8949 3.66438 11.2507 4.56096 10.8165C4.16946 10.4483 3.8575 10.0038 3.64429 9.51039C3.43107 9.01702 3.32112 8.48522 3.32121 7.94775ZM13.4462 6.26025C14.0998 6.26071 14.7393 6.4509 15.2869 6.80773C15.8346 7.16457 16.2669 7.6727 16.5313 8.27046C16.7958 8.86821 16.881 9.52988 16.7767 10.1751C16.6724 10.8204 16.383 11.4215 15.9437 11.9055C16.6289 12.2449 17.2376 12.7205 17.7328 13.3031C18.228 13.8857 18.5992 14.5631 18.8237 15.294C18.8683 15.4358 18.8746 15.5869 18.8419 15.732C18.8092 15.877 18.7387 16.0108 18.6376 16.1198C18.5365 16.2288 18.4084 16.3091 18.2662 16.3526C18.124 16.396 17.9729 16.4011 17.8281 16.3673C17.6833 16.3338 17.55 16.2627 17.4416 16.1611C17.3331 16.0596 17.2534 15.9312 17.2105 15.789C17.0085 15.1369 16.641 14.5483 16.1437 14.0806C15.6465 13.6129 15.0365 13.2821 14.3732 13.1205C14.189 13.076 14.0251 12.9708 13.9079 12.8218C13.7908 12.6729 13.7272 12.4888 13.7275 12.2993V11.9033C13.7274 11.7462 13.7711 11.5922 13.8538 11.4586C13.9365 11.325 14.0548 11.2172 14.1955 11.1473C14.5365 10.9782 14.8104 10.6989 14.9727 10.3545C15.1349 10.0102 15.176 9.6211 15.0892 9.25049C15.0024 8.87987 14.7928 8.54948 14.4946 8.31298C14.1963 8.07648 13.8269 7.94777 13.4462 7.94775C13.2224 7.94775 13.0078 7.85886 12.8496 7.70062C12.6914 7.54239 12.6025 7.32778 12.6025 7.104C12.6025 6.88022 12.6914 6.66561 12.8496 6.50738C13.0078 6.34915 13.2224 6.26025 13.4462 6.26025ZM7.25871 5.69775C6.95908 5.69098 6.66111 5.74413 6.38231 5.85409C6.1035 5.96406 5.84947 6.12862 5.63514 6.3381C5.42081 6.54759 5.25049 6.79779 5.13418 7.07401C5.01787 7.35023 4.95792 7.64691 4.95784 7.94661C4.95777 8.24632 5.01757 8.54302 5.13374 8.8193C5.24991 9.09558 5.42011 9.34586 5.63434 9.55546C5.84857 9.76506 6.10251 9.92974 6.38126 10.0398C6.66001 10.1499 6.95795 10.2033 7.25759 10.1966C7.84547 10.1836 8.4049 9.941 8.81613 9.52068C9.22736 9.10037 9.4577 8.53576 9.45784 7.94774C9.45799 7.35971 9.22793 6.795 8.81691 6.37447C8.4059 5.95395 7.84659 5.71105 7.25871 5.69775Z" fill="currentcolor"/>
</svg>
