<svg viewBox="0 0 20 20" xmlns="http://www.w3.org/2000/svg">
<path d="M5.00049 10C5.00049 10.5304 4.78977 11.0391 4.4147 11.4142C4.03963 11.7893 3.53092 12 3.00049 12C2.47006 12 1.96135 11.7893 1.58627 11.4142C1.2112 11.0391 1.00049 10.5304 1.00049 10C1.00049 9.46957 1.2112 8.96086 1.58627 8.58579C1.96135 8.21071 2.47006 8 3.00049 8C3.53092 8 4.03963 8.21071 4.4147 8.58579C4.78977 8.96086 5.00049 9.46957 5.00049 10ZM12.0005 10C12.0005 10.5304 11.7898 11.0391 11.4147 11.4142C11.0396 11.7893 10.5309 12 10.0005 12C9.47006 12 8.96135 11.7893 8.58628 11.4142C8.2112 11.0391 8.00049 10.5304 8.00049 10C8.00049 9.46957 8.2112 8.96086 8.58628 8.58579C8.96135 8.21071 9.47006 8 10.0005 8C10.5309 8 11.0396 8.21071 11.4147 8.58579C11.7898 8.96086 12.0005 9.46957 12.0005 10ZM19.0005 10C19.0005 10.5304 18.7898 11.0391 18.4147 11.4142C18.0396 11.7893 17.5309 12 17.0005 12C16.4701 12 15.9613 11.7893 15.5863 11.4142C15.2112 11.0391 15.0005 10.5304 15.0005 10C15.0005 9.46957 15.2112 8.96086 15.5863 8.58579C15.9613 8.21071 16.4701 8 17.0005 8C17.5309 8 18.0396 8.21071 18.4147 8.58579C18.7898 8.96086 19.0005 9.46957 19.0005 10Z" fill="currentcolor"/>
</svg>
