<svg viewBox="0 0 20 20" xmlns="http://www.w3.org/2000/svg">
<path d="M14.3477 6.41068C14.2627 6.20545 14.0764 6.06306 13.8612 6.03051L13.7672 6.02316H11.2556C10.9088 6.02316 10.6277 6.30427 10.6277 6.65105C10.6277 6.99783 10.9088 7.27894 11.2556 7.27894H12.2514L10.8117 8.71869C10.6321 8.89825 10.578 9.16838 10.6751 9.40299C10.7723 9.63762 11.0017 9.79052 11.2556 9.79052H13.7672C14.114 9.79052 14.3951 9.5094 14.3951 9.16263C14.3951 8.81585 14.114 8.53473 13.7672 8.53473H12.7714L14.2111 7.09499C14.3907 6.91543 14.4448 6.6453 14.3477 6.41068Z" fill="currentcolor"/>
<path d="M16.5388 4.34877H18.3717C18.7184 4.34897 19 4.63001 19 4.97666C19 5.32332 18.7187 5.60436 18.3721 5.60456H15.0233C14.7694 5.60456 14.5401 5.45162 14.4429 5.21703C14.3457 4.9825 14.3992 4.7123 14.5786 4.53272L16.8555 2.25579H15.0233C14.6766 2.25579 14.3954 1.97467 14.3954 1.62789C14.3954 1.28112 14.6766 1 15.0233 1H18.3721C18.6259 1.00015 18.8546 1.15307 18.9518 1.38753C19.0489 1.62208 18.9955 1.89226 18.816 2.07184L16.5388 4.34877Z" fill="black"/>
<path d="M17.7439 9.99982C17.7439 14.2767 14.2767 17.7439 9.99982 17.7439V18.9996C14.9703 18.9996 18.9996 14.9703 18.9996 9.99982H17.7439ZM9.99982 17.7439C5.72291 17.7439 2.25579 14.2767 2.25579 9.99982H1C1 14.9703 5.02936 18.9996 9.99982 18.9996V17.7439ZM2.25579 9.99982C2.25579 5.72291 5.72291 2.25579 9.99982 2.25579V1C5.02936 1 1 5.02936 1 9.99982H2.25579ZM12.93 11.8835C10.2714 11.8835 8.11614 9.72824 8.11614 7.06965H6.86035C6.86035 10.4218 9.57779 13.1393 12.93 13.1393V11.8835ZM17.0534 9.55527C16.2094 10.952 14.6782 11.8835 12.93 11.8835V13.1393C15.1359 13.1393 17.0663 11.9621 18.1283 10.2047L17.0534 9.55527ZM8.11614 7.06965C8.11614 5.32144 9.04768 3.7902 10.4444 2.9462L9.79496 1.87139C8.03752 2.93333 6.86035 4.86372 6.86035 7.06965H8.11614ZM9.99982 2.25579C9.92573 2.25579 9.83883 2.22237 9.77579 2.15673C9.72237 2.10113 9.70998 2.04853 9.70706 2.02726C9.70354 2.00117 9.7053 1.92557 9.79496 1.87139L10.4444 2.9462C10.8656 2.69167 11.0011 2.22563 10.9515 1.85919C10.9001 1.47825 10.5998 1 9.99982 1V2.25579ZM18.1283 10.2047C18.074 10.2943 17.9984 10.2961 17.9724 10.2926C17.9511 10.2897 17.8985 10.2773 17.8429 10.2239C17.7773 10.1608 17.7439 10.0739 17.7439 9.99982H18.9996C18.9996 9.39989 18.5214 9.0995 18.1404 9.0481C17.774 8.99854 17.3079 9.134 17.0534 9.55527L18.1283 10.2047Z" fill="currentcolor"/>
</svg>
