<svg viewBox="0 0 20 20" xmlns="http://www.w3.org/2000/svg">
<path fill-rule="evenodd" clip-rule="evenodd" d="M9.5 10.2326C11.7474 10.2326 13.8188 10.7215 15.3531 11.548C16.8645 12.3621 17.9999 13.5964 17.9999 15.1163L17.9999 15.2112C18.001 16.292 18.0024 17.6485 16.76 18.6174C16.1486 19.0941 15.2934 19.4335 14.1379 19.6575C12.979 19.8822 11.4679 20 9.5 20C7.53234 20 6.02188 19.8821 4.86302 19.6575C3.70729 19.4335 2.85149 19.0942 2.24001 18.6174C0.997609 17.6484 0.998976 16.2916 1.00007 15.2108L1.00013 15.1163C1.00013 13.5964 2.13635 12.3621 3.6478 11.548C5.18204 10.7215 7.25273 10.2326 9.5 10.2326ZM9.5 0C12.0484 0 14.1142 1.97828 14.1142 4.4186C14.1142 6.85893 12.0484 8.83721 9.5 8.83721C6.95182 8.83701 4.88578 6.85881 4.88578 4.4186C4.88578 1.9784 6.95182 0.000200336 9.5 0ZM9.5 11.6279C11.5444 11.6279 13.3595 12.0759 14.6379 12.7644C15.939 13.4652 16.5427 14.3243 16.5427 15.1163C16.5427 16.3329 16.5035 17.0178 15.8398 17.5354C15.4798 17.816 14.8782 18.0898 13.8486 18.2894C12.8219 18.4884 11.4178 18.6047 9.5 18.6047C7.58253 18.6046 6.17901 18.4884 5.15235 18.2894C4.12239 18.0898 3.52013 17.8161 3.1602 17.5354C2.49651 17.0178 2.45725 16.3328 2.45725 15.1163C2.45725 14.3243 3.06104 13.4652 4.36213 12.7644C5.64041 12.0758 7.45554 11.6279 9.5 11.6279ZM12.6571 4.4186C12.6571 2.74891 11.2436 1.39535 9.5 1.39535C7.7565 1.39548 6.3429 2.74899 6.3429 4.4186C6.3429 6.08822 7.7565 7.44173 9.5 7.44186C11.2436 7.44186 12.6571 6.0883 12.6571 4.4186Z" fill="currentcolor"/>
</svg>
