<svg viewBox="0 0 20 20" xmlns="http://www.w3.org/2000/svg">
<g clip-path="url(#clip0_2391_10640)">
<path d="M10 15.5C11.25 15.5 12.3127 15.0627 13.188 14.188C14.0633 13.3133 14.5007 12.2507 14.5 11C14.4993 9.74933 14.062 8.687 13.188 7.813C12.314 6.939 11.2513 6.50133 10 6.5C8.74867 6.49867 7.68633 6.93633 6.813 7.813C5.93967 8.68967 5.502 9.752 5.5 11C5.498 12.248 5.93567 13.3107 6.813 14.188C7.69033 15.0653 8.75267 15.5027 10 15.5ZM10 13.5C9.3 13.5 8.70833 13.2583 8.225 12.775C7.74167 12.2917 7.5 11.7 7.5 11C7.5 10.3 7.74167 9.70833 8.225 9.225C8.70833 8.74167 9.3 8.5 10 8.5C10.7 8.5 11.2917 8.74167 11.775 9.225C12.2583 9.70833 12.5 10.3 12.5 11C12.5 11.7 12.2583 12.2917 11.775 12.775C11.2917 13.2583 10.7 13.5 10 13.5ZM2 19C1.45 19 0.979333 18.8043 0.588 18.413C0.196667 18.0217 0.000666667 17.5507 0 17V5C0 4.45 0.196 3.97933 0.588 3.588C0.98 3.19667 1.45067 3.00067 2 3H5.15L7 1H13L14.85 3H18C18.55 3 19.021 3.196 19.413 3.588C19.805 3.98 20.0007 4.45067 20 5V17C20 17.55 19.8043 18.021 19.413 18.413C19.0217 18.805 18.5507 19.0007 18 19H2ZM2 17H18V5H13.95L12.125 3H7.875L6.05 5H2V17Z" fill="currentcolor"/>
</g>
<defs>
<clipPath id="clip0_2391_10640">
<rect width="20" height="20" fill="white"/>
</clipPath>
</defs>
</svg>
