<svg viewBox="0 0 20 20" xmlns="http://www.w3.org/2000/svg">
<path fill-rule="evenodd" clip-rule="evenodd" d="M9.99999 0C12.6915 0 14.8718 2.18029 14.8718 4.8718V7.17949H15.5389C16.8659 7.17971 17.9485 8.26226 17.9487 9.58934V16.7688C17.9487 18.5475 16.4962 20 14.7175 20H5.28244C3.50376 20 2.05127 18.5475 2.05127 16.7688V9.58934C2.05149 8.26226 3.13404 7.17971 4.46113 7.17949H5.12819V4.8718C5.12819 2.18029 7.30849 0 9.99999 0ZM16.4102 9.58934C16.41 9.11193 16.0163 8.71817 15.5389 8.71795H4.46113C3.98371 8.71817 3.58995 9.11193 3.58973 9.58934V16.7688C3.58973 17.6978 4.35343 18.4615 5.28244 18.4615H14.7175C15.6465 18.4615 16.4102 17.6978 16.4102 16.7688V9.58934ZM9.99999 1.53846C11.8418 1.53846 13.3333 3.02996 13.3333 4.8718V7.17949H12.0513H6.66665V5.16026V4.8718C6.66665 3.02996 8.15816 1.53846 9.99999 1.53846Z" fill="currentcolor"/>
<path fill-rule="evenodd" clip-rule="evenodd" d="M9.99999 10.2564C9.52396 10.2564 9.06756 10.4456 8.73096 10.7823C8.39435 11.1189 8.20512 11.5753 8.20512 12.0513C8.20512 12.5273 8.39435 12.9837 8.73096 13.3203C8.87739 13.4667 9.0472 13.5837 9.23076 13.6709V16.1538C9.23076 16.5787 9.57515 16.9231 9.99999 16.9231C10.4248 16.9231 10.7692 16.5787 10.7692 16.1538V13.6709C10.9528 13.5837 11.1226 13.4667 11.269 13.3203C11.6056 12.9837 11.7949 12.5273 11.7949 12.0513C11.7949 11.5753 11.6056 11.1189 11.269 10.7823C10.9324 10.4456 10.476 10.2564 9.99999 10.2564ZM9.8187 11.87C9.86678 11.8219 9.93198 11.7949 9.99999 11.7949C10.068 11.7949 10.1332 11.8219 10.1813 11.87C10.2294 11.9181 10.2564 11.9833 10.2564 12.0513C10.2564 12.1193 10.2294 12.1845 10.1813 12.2326C10.1332 12.2807 10.068 12.3077 9.99999 12.3077C9.93198 12.3077 9.86678 12.2807 9.8187 12.2326C9.77061 12.1845 9.74358 12.1193 9.74358 12.0513C9.74358 11.9833 9.77061 11.9181 9.8187 11.87Z" fill="currentcolor"/>
</svg>
