<svg viewBox="0 0 20 20"  xmlns="http://www.w3.org/2000/svg">
<g clip-path="url(#clip0_229_576)">
<path fill-rule="evenodd" clip-rule="evenodd" d="M13.6365 7.27263C13.6365 8.23706 13.2533 9.16198 12.5714 9.84393C11.8894 10.5259 10.9645 10.909 10.0001 10.909C9.03567 10.909 8.11075 10.5259 7.4288 9.84393C6.74684 9.16198 6.36373 8.23706 6.36373 7.27263C6.36373 6.30821 6.74684 5.38329 7.4288 4.70134C8.11075 4.01939 9.03567 3.63627 10.0001 3.63627C10.9645 3.63627 11.8894 4.01939 12.5714 4.70134C13.2533 5.38329 13.6365 6.30821 13.6365 7.27263ZM11.8183 7.27263C11.8183 7.75485 11.6267 8.21731 11.2857 8.55828C10.9448 8.89926 10.4823 9.09082 10.0001 9.09082C9.51788 9.09082 9.05542 8.89926 8.71444 8.55828C8.37347 8.21731 8.18191 7.75485 8.18191 7.27263C8.18191 6.79042 8.37347 6.32796 8.71444 5.98699C9.05542 5.64601 9.51788 5.45445 10.0001 5.45445C10.4823 5.45445 10.9448 5.64601 11.2857 5.98699C11.6267 6.32796 11.8183 6.79042 11.8183 7.27263Z" fill="currentcolor"/>
<path fill-rule="evenodd" clip-rule="evenodd" d="M10 0C4.47727 0 0 4.47727 0 10C0 15.5227 4.47727 20 10 20C15.5227 20 20 15.5227 20 10C20 4.47727 15.5227 0 10 0ZM1.81818 10C1.81818 11.9 2.46636 13.6491 3.55273 15.0382C4.31586 14.0365 5.30014 13.2247 6.42876 12.6661C7.55739 12.1076 8.79982 11.8174 10.0591 11.8182C11.3022 11.8167 12.5292 12.0992 13.6465 12.644C14.7638 13.1888 15.742 13.9815 16.5064 14.9618C17.294 13.9287 17.8244 12.7229 18.0535 11.4442C18.2827 10.1654 18.204 8.85049 17.8241 7.60817C17.4441 6.36585 16.7738 5.23186 15.8686 4.30003C14.9634 3.36821 13.8493 2.66533 12.6185 2.24955C11.3877 1.83378 10.0756 1.71707 8.79078 1.90907C7.50593 2.10107 6.28526 2.59627 5.22979 3.35369C4.17432 4.1111 3.31437 5.10897 2.72112 6.26472C2.12786 7.42047 1.81835 8.70088 1.81818 10ZM10 18.1818C8.12173 18.1849 6.30013 17.5387 4.84364 16.3527C5.42983 15.5133 6.21018 14.8279 7.11825 14.355C8.02633 13.882 9.03523 13.6355 10.0591 13.6364C11.0702 13.6355 12.0668 13.8759 12.9663 14.3376C13.8659 14.7992 14.6422 15.4689 15.2309 16.2909C13.7632 17.5155 11.9115 18.1848 10 18.1818Z" fill="currentcolor"/>
</g>
<defs>
<clipPath id="clip0_229_576">
<rect width="20" height="20"/>
</clipPath>
</defs>
</svg>
