<svg viewBox="0 0 20 20" xmlns="http://www.w3.org/2000/svg">
<g clip-path="url(#clip0_2290_8412)">
<path d="M10 0C12.2497 0 14.3253 0.74245 15.996 1.99601L16.009 2.00698L16.011 2.00797L16.0149 2.01196C18.4354 3.83747 20 6.73545 20 10C20 15.5231 15.5231 20 10 20C4.47693 20 0 15.5231 0 10C1.18846e-08 9.62549 0.0215561 9.25553 0.0617838 8.89088C0.065381 8.85828 0.0616893 8.82481 0.0498256 8.79422C-0.0455936 8.54791 0.00245926 8.27719 0.160438 8.08072C0.180854 8.05534 0.194795 8.02494 0.201295 7.99302C0.727326 5.41058 2.25005 3.19077 4.34978 1.74988C4.36552 1.73905 4.3795 1.72576 4.39163 1.71101C4.48426 1.59816 4.61091 1.51334 4.75735 1.47285C4.77555 1.46782 4.79304 1.45974 4.80917 1.44993C6.32207 0.529433 8.09896 1.24114e-05 10 0ZM9.87544 1.44893L9.81863 1.45092C9.72462 1.45329 9.64434 1.51947 9.62432 1.61136C9.60434 1.70318 9.64953 1.79628 9.73393 1.83757C10.0577 1.99566 10.3422 2.20376 10.559 2.47833C10.85 2.84715 10.9749 3.27813 10.9666 3.72995L10.9537 3.93523C10.8808 4.63363 10.6224 5.15845 10.1604 5.50374C9.756 5.80596 9.26918 5.90296 8.94071 5.96712L8.92177 5.9711C8.53836 6.0461 8.29558 6.0921 8.09068 6.2013C8.0198 6.23911 7.93762 6.29308 7.8585 6.38565C7.78072 6.47672 7.71318 6.59724 7.6562 6.75934C7.61474 6.87747 7.59089 6.99176 7.59342 7.10912C7.59598 7.22781 7.62537 7.33756 7.67514 7.44694C7.76874 7.65263 7.94692 7.87947 8.18037 8.17838C8.2096 8.2158 8.24054 8.25549 8.27205 8.29596L8.27803 8.30294L8.45042 8.53612C8.63483 8.80717 8.82932 9.1884 8.78724 9.63627C8.72646 10.2803 8.22919 10.7416 7.62033 11.1121C6.96005 11.5139 6.3188 11.6881 5.70902 11.5336C5.10937 11.3816 4.71888 10.9543 4.4584 10.576C4.26701 10.2979 4.08996 9.95538 3.94519 9.67514C3.90244 9.59238 3.86191 9.51455 3.82561 9.44694C3.72571 9.26087 3.64522 9.1297 3.58047 9.03837C3.51853 8.95103 3.46194 8.88702 3.40708 8.84803C3.13497 8.65481 2.60056 8.57372 1.62531 8.93772C1.57074 8.95809 1.52781 8.99984 1.50673 9.05232L1.49377 9.10713C1.46335 9.4004 1.44694 9.69847 1.44694 10C1.44694 11.0548 1.63861 12.0652 1.98804 12.9985C2.00742 13.0502 2.04702 13.092 2.09766 13.1141C2.14841 13.1362 2.20597 13.1363 2.2571 13.1151C2.27557 13.1074 2.29521 13.0996 2.3129 13.0922C2.33455 13.0831 2.35504 13.0738 2.37569 13.0653L2.37668 13.0663L2.38067 13.0643L2.38166 13.0633C3.96433 12.4242 5.37513 12.1283 6.47932 12.4126L6.69656 12.4773L6.91679 12.562C7.40202 12.7762 7.75947 13.0651 8.00997 13.4101C8.25671 13.75 8.37113 14.1059 8.43548 14.4076C8.46723 14.5566 8.48798 14.6988 8.50424 14.8181C8.50865 14.8506 8.51251 14.8802 8.51619 14.9078C8.52726 14.9907 8.53654 15.0584 8.54808 15.1251C8.55145 15.1445 8.5558 15.1616 8.55805 15.1709C8.55955 15.1771 8.55974 15.1795 8.56004 15.1809C8.57282 15.242 8.61275 15.2945 8.66866 15.3224L8.67863 15.3264C8.67995 15.327 8.68107 15.3286 8.68261 15.3293C8.70289 15.3395 8.73464 15.3549 8.77529 15.3712C8.84738 15.4001 8.92552 15.4279 9.02242 15.4619C9.1131 15.4937 9.22314 15.5316 9.33134 15.5755C9.54012 15.6602 9.82339 15.7957 10.0518 16.0409L10.1405 16.1465C10.3352 16.4001 10.4404 16.712 10.4405 17.0703C10.4405 17.4625 10.3747 17.8664 10.2531 18.279C10.2346 18.3423 10.2473 18.4105 10.288 18.4624C10.3291 18.5144 10.3932 18.5436 10.4594 18.5401C11.057 18.5085 11.6377 18.4141 12.1963 18.2661C12.2487 18.2522 12.2937 18.2183 12.3209 18.1714C12.7593 17.4138 13.0892 16.7611 13.3104 16.2083C13.5549 15.5971 13.651 15.1541 13.6552 14.854C13.6553 14.8528 13.6562 14.8516 13.6562 14.851V14.847C13.6565 14.8428 13.6572 14.8367 13.6572 14.8301C13.6572 14.8166 13.6558 14.8021 13.6532 14.7872C13.6529 14.7856 13.6515 14.784 13.6512 14.7823C13.6483 14.767 13.6422 14.7519 13.6363 14.7354C13.632 14.7233 13.6301 14.7098 13.6243 14.6976C13.5966 14.6388 13.5472 14.5681 13.4659 14.4783C13.3289 14.3273 13.1696 14.1938 12.9656 14.0219C12.8816 13.9511 12.7888 13.8726 12.6836 13.7818C12.0203 13.209 11.1869 12.3805 11.0613 10.9278C10.9899 10.101 11.307 9.45937 11.8555 9.03039C12.3571 8.63827 13.0055 8.45774 13.5855 8.36871C14.4763 8.23203 15.5224 8.28203 16.0419 8.30992C16.1499 8.31556 16.2434 8.23518 16.2551 8.12755C16.2576 8.10445 16.2616 8.0695 16.2611 8.0299C16.2596 7.91971 16.2358 7.82232 16.1983 7.74489L16.1565 7.67414C16.1349 7.64433 16.0992 7.60194 16.0389 7.56353C15.9809 7.52676 15.9082 7.49827 15.8166 7.47982C15.3338 7.38277 15.0264 7.47065 14.6079 7.58844C14.5626 7.60117 14.5159 7.61489 14.4674 7.6283C14.2241 7.69545 13.9103 7.7721 13.5516 7.75585C13.1784 7.73893 12.8065 7.62472 12.4165 7.39013C12.2212 7.2726 12.0453 7.10562 11.9283 6.87992C11.8114 6.65439 11.7756 6.41491 11.7907 6.18934C11.8194 5.766 12.0269 5.34619 12.281 4.96263C12.6737 4.36985 13.3173 3.66174 14.1883 2.84604C14.2357 2.80152 14.259 2.73717 14.2511 2.67265C14.2431 2.60792 14.2045 2.55086 14.1475 2.51918C12.9188 1.8366 11.5048 1.44694 10 1.44694C9.95715 1.44694 9.91443 1.44786 9.87544 1.44893ZM6.33284 13.8864C6.04243 13.7588 5.62973 13.7141 5.08221 13.7838C4.53216 13.8537 3.83008 14.041 2.94768 14.3956C2.89086 14.4185 2.84738 14.4657 2.8291 14.5242C2.81087 14.5826 2.81936 14.6464 2.85301 14.6976C4.11814 16.6186 6.13649 17.9981 8.48929 18.4175C8.58403 18.4344 8.67813 18.383 8.7145 18.294C8.89283 17.8554 8.97775 17.4754 8.98954 17.149C8.99246 17.0677 8.94631 16.9927 8.87294 16.9576C8.86945 16.956 8.86568 16.953 8.85899 16.9497C8.84304 16.9417 8.81784 16.9292 8.78724 16.9168C8.71671 16.8882 8.63979 16.8606 8.5441 16.8271C8.45529 16.796 8.34543 16.7574 8.23817 16.7145C8.03244 16.6321 7.7489 16.4997 7.51968 16.2591C7.24138 15.9668 7.16135 15.5989 7.12207 15.3722C7.10559 15.277 7.09129 15.1722 7.07922 15.0812C7.07611 15.0577 7.07312 15.0345 7.07025 15.0135C7.05492 14.9009 7.03942 14.8023 7.01943 14.7085C6.98006 14.5241 6.92642 14.3805 6.83906 14.2601C6.77623 14.1736 6.67924 14.0756 6.51719 13.9801L6.33284 13.8864ZM15.5187 3.60937L15.4539 3.64923C14.4747 4.54299 13.8296 5.24446 13.4868 5.76183C13.4268 5.85245 13.3816 5.92974 13.3473 5.99402C13.3179 6.04932 13.316 6.1151 13.3413 6.1724C13.3667 6.22976 13.417 6.27266 13.4778 6.28799C13.5274 6.30045 13.5738 6.30794 13.6173 6.30992C13.7366 6.31528 13.8664 6.29261 14.0817 6.23318C14.1239 6.22153 14.1692 6.20867 14.2152 6.19532C14.6374 6.07303 15.2632 5.89267 16.1006 6.06079C16.6384 6.16888 17.0557 6.44562 17.3303 6.82611C17.5963 7.19468 17.7016 7.62224 17.707 8.00897C17.7123 8.39084 17.6204 8.78518 17.426 9.10713C17.2348 9.42368 16.8709 9.7708 16.3348 9.7708C16.1948 9.77077 16.022 9.7622 15.8186 9.75187C15.2762 9.72433 14.5418 9.68558 13.8047 9.79871C13.3182 9.8734 12.9605 10.0031 12.7474 10.1694C12.6787 10.2231 12.6016 10.296 12.5521 10.4096C12.5036 10.5207 12.49 10.6499 12.5032 10.8032C12.5787 11.675 13.0451 12.1812 13.6303 12.6866C13.6882 12.7366 13.7526 12.7907 13.8196 12.847C14.0588 13.048 14.3334 13.2788 14.5391 13.5057C14.8293 13.8258 15.1041 14.2585 15.1041 14.8341C15.104 15.3908 14.9382 16.0257 14.6657 16.7135C14.6323 16.7977 14.6591 16.8939 14.7304 16.9497C14.8018 17.0053 14.901 17.0074 14.9746 16.9547C17.1397 15.4033 18.5531 12.8679 18.5531 10C18.5531 7.47937 17.4623 5.21326 15.728 3.64823C15.6695 3.5956 15.5884 3.5828 15.5187 3.60937ZM13.4659 15.0374C13.4605 15.0375 13.4528 15.0358 13.4449 15.0354C13.4645 15.0348 13.4904 15.0321 13.5077 15.0284C13.4945 15.0316 13.4767 15.0363 13.4659 15.0374ZM13.5864 14.9885C13.5849 14.9899 13.5822 14.9901 13.5805 14.9915C13.5872 14.9858 13.5942 14.9787 13.5994 14.9736C13.5952 14.978 13.5918 14.9839 13.5864 14.9885ZM13.6492 14.8889C13.6486 14.8911 13.6474 14.8944 13.6462 14.8979C13.6483 14.8915 13.6495 14.886 13.6502 14.8829L13.6492 14.8889ZM13.6562 14.8341V14.8401L13.6552 14.844C13.6551 14.846 13.6564 14.8491 13.6562 14.851L13.6552 14.852L13.6562 14.8341ZM13.6562 14.8171V14.8261L13.6542 14.8092C13.6546 14.8124 13.656 14.8152 13.6562 14.8171ZM8.80817 3.02342C8.11511 2.80179 6.97694 2.72995 5.32835 2.86497C5.31114 2.86638 5.29371 2.86932 5.27753 2.87494L5.23069 2.89885C3.75934 3.88894 2.61233 5.32445 1.98306 7.01246C1.95775 7.0804 1.97107 7.15662 2.01694 7.21276C2.06299 7.26894 2.13555 7.29703 2.20727 7.2855C2.96945 7.16305 3.66438 7.25651 4.24514 7.66916C4.65143 7.95796 4.91663 8.42054 5.10015 8.76233C5.166 8.88497 5.2244 8.99653 5.27853 9.10115C5.4047 9.34502 5.51341 9.556 5.65022 9.75486L5.77877 9.92227C5.89799 10.0593 5.99144 10.1119 6.06477 10.1305C6.15235 10.1527 6.38477 10.1694 6.86796 9.87544C7.04196 9.76953 7.14942 9.68253 7.21774 9.62232C7.29456 9.55461 7.30968 9.44026 7.25262 9.35526L7.25062 9.35227L7.13004 9.18386C7.09686 9.14123 7.0563 9.09307 7.01445 9.04235C6.60064 8.5409 5.8288 7.59258 6.29098 6.27803C6.52718 5.60639 6.92553 5.18274 7.40907 4.92476C7.80811 4.71189 8.2515 4.62632 8.56203 4.56702L8.64375 4.55107L8.88391 4.50025C9.08041 4.45412 9.19616 4.40958 9.27853 4.35277L9.27952 4.35376L9.28052 4.35177L9.28152 4.35277C9.28292 4.35188 9.28532 4.35022 9.28749 4.34878C9.29237 4.34552 9.29848 4.34148 9.30443 4.33682C9.31637 4.32748 9.32866 4.31561 9.34131 4.30194C9.34211 4.30108 9.3425 4.29984 9.3433 4.29895C9.35129 4.29014 9.35828 4.2798 9.36622 4.26906C9.37197 4.2613 9.37858 4.25385 9.38416 4.24514C9.41273 4.20039 9.43985 4.14119 9.46288 4.06178C9.48417 3.98824 9.50292 3.89759 9.5147 3.78475L9.5157 3.7708L9.51869 3.66517C9.51887 3.65954 9.51897 3.65386 9.51869 3.64823C9.51187 3.51319 9.46834 3.43161 9.42302 3.37419C9.34177 3.2715 9.16653 3.13807 8.80817 3.02342Z" fill="currentcolor"/>
</g>
<defs>
<clipPath id="clip0_2290_8412">
<rect width="20" height="20" fill="white"/>
</clipPath>
</defs>
</svg>
