<svg viewBox="0 0 20 20" xmlns="http://www.w3.org/2000/svg">
<path d="M10 0.875C8.67392 0.875 7.40215 1.40178 6.46447 2.33947C5.52678 3.27715 5 4.54892 5 5.875C5 6.14022 5.10536 6.39457 5.29289 6.58211C5.48043 6.76964 5.73478 6.875 6 6.875C6.26522 6.875 6.51957 6.76964 6.70711 6.58211C6.89464 6.39457 7 6.14022 7 5.875C7 4.217 8.342 2.875 10 2.875C11.658 2.875 13 4.217 13 5.875C13 6.691 12.801 7.169 12.562 7.504C12.3 7.869 11.937 8.142 11.434 8.489L11.318 8.567C10.871 8.873 10.295 9.266 9.849 9.814C9.322 10.462 9 11.281 9 12.375V12.875C9 13.1402 9.10536 13.3946 9.29289 13.5821C9.48043 13.7696 9.73478 13.875 10 13.875C10.2652 13.875 10.5196 13.7696 10.7071 13.5821C10.8946 13.3946 11 13.1402 11 12.875V12.375C11 11.719 11.178 11.351 11.4 11.076C11.657 10.762 12.003 10.524 12.514 10.173L12.567 10.136C13.063 9.796 13.7 9.35 14.187 8.668C14.7 7.956 15 7.058 15 5.875C15 4.54892 14.4732 3.27715 13.5355 2.33947C12.5979 1.40178 11.3261 0.875 10 0.875ZM10 18.125C10.3315 18.125 10.6495 17.9933 10.8839 17.7589C11.1183 17.5245 11.25 17.2065 11.25 16.875C11.25 16.5435 11.1183 16.2255 10.8839 15.9911C10.6495 15.7567 10.3315 15.625 10 15.625C9.66848 15.625 9.35054 15.7567 9.11612 15.9911C8.8817 16.2255 8.75 16.5435 8.75 16.875C8.75 17.2065 8.8817 17.5245 9.11612 17.7589C9.35054 17.9933 9.66848 18.125 10 18.125Z" fill="currentcolor"/>
</svg>
