<svg viewBox="0 0 20 20" xmlns="http://www.w3.org/2000/svg">
<path d="M10 14.9886C10.2423 14.9886 10.4454 14.9067 10.6094 14.7427C10.7733 14.5788 10.8553 14.3757 10.8553 14.1334C10.8553 13.8911 10.7733 13.688 10.6094 13.524C10.4454 13.3603 10.2423 13.2784 10 13.2784C9.75771 13.2784 9.55459 13.3603 9.39065 13.524C9.22671 13.688 9.14474 13.8911 9.14474 14.1334C9.14474 14.3757 9.22671 14.5788 9.39065 14.7427C9.55459 14.9067 9.75771 14.9886 10 14.9886ZM9.20588 11.3031H10.7941V4.90944H9.20588V11.3031ZM6.25335 19L1 13.7514V6.25335L6.24859 1H13.7466L19 6.24859V13.7466L13.7514 19H6.25335ZM6.92941 17.4118H13.0706L17.4118 13.0706V6.92941L13.0706 2.58824H6.92941L2.58824 6.92941V13.0706L6.92941 17.4118Z" fill="currentcolor"/>
</svg>
