<svg viewBox="0 0 20 20" xmlns="http://www.w3.org/2000/svg">
<path d="M13.9653 9.16368C14.376 9.16481 14.7828 9.08446 15.1621 8.92729C15.5415 8.77013 15.886 8.53926 16.1755 8.24806L19.1833 5.2422C19.4212 5.00431 19.4431 4.6172 19.2165 4.36759C19.1596 4.30488 19.0906 4.25437 19.0136 4.21915C18.9366 4.18392 18.8533 4.1647 18.7687 4.16265C18.684 4.16061 18.5998 4.17578 18.5212 4.20725C18.4426 4.23871 18.3713 4.28582 18.3114 4.34571L15.6306 7.02462C15.5406 7.11452 15.4185 7.16502 15.2913 7.16502C15.1641 7.16502 15.0421 7.11452 14.952 7.02462C14.7649 6.8379 14.7751 6.52227 14.9618 6.33556L17.631 3.66642C17.6908 3.60658 17.7378 3.53522 17.7693 3.45666C17.8007 3.3781 17.8159 3.29398 17.8138 3.20939C17.8118 3.1248 17.7926 3.0415 17.7574 2.96455C17.7222 2.8876 17.6717 2.8186 17.6091 2.76173C17.496 2.65913 17.3485 2.60268 17.1958 2.60352C17.1101 2.60356 17.0252 2.62049 16.9461 2.65333C16.8669 2.68617 16.795 2.73429 16.7345 2.79493L14.0677 5.46134C13.9777 5.55124 13.8556 5.60174 13.7284 5.60174C13.6012 5.60174 13.4792 5.55124 13.3892 5.46134C13.2024 5.27462 13.2122 4.95899 13.3989 4.77227L16.0681 2.10392C16.1279 2.04408 16.175 1.97272 16.2064 1.89416C16.2378 1.8156 16.253 1.73148 16.2509 1.64689C16.2489 1.5623 16.2297 1.479 16.1945 1.40205C16.1593 1.3251 16.1088 1.2561 16.0462 1.19923C15.9331 1.09663 15.7856 1.04018 15.6329 1.04102C15.4599 1.04123 15.2939 1.11006 15.1716 1.23243L12.1657 4.23829C11.8745 4.5279 11.6436 4.8724 11.4865 5.25184C11.3293 5.63128 11.249 6.03813 11.2501 6.44884V6.77032C11.2502 6.85252 11.234 6.93391 11.2026 7.00986C11.1711 7.0858 11.125 7.1548 11.0669 7.2129L9.67588 8.60431C9.66137 8.61883 9.64413 8.63036 9.62517 8.63822C9.6062 8.64608 9.58586 8.65013 9.56533 8.65013C9.5448 8.65013 9.52447 8.64608 9.5055 8.63822C9.48653 8.63036 9.4693 8.61883 9.45478 8.60431L2.68603 1.83517C2.56921 1.71821 2.41081 1.6523 2.2455 1.65186C2.0802 1.65142 1.92145 1.71649 1.804 1.83282C1.21221 2.41915 0.896191 3.24688 0.896191 4.22618C0.892285 5.84337 1.74228 7.70274 3.11455 9.07306L6.45244 12.4109C6.92688 12.8844 7.56971 13.1503 8.23994 13.1504C8.45361 13.1505 8.66642 13.1232 8.87314 13.0692C8.92505 13.0555 8.97847 13.0486 9.03213 13.0484C9.18903 13.0485 9.34013 13.1078 9.45518 13.2145L9.9001 13.6254C10.0148 13.7426 10.0793 13.9 10.0798 14.0641V14.2805C10.0786 14.7724 10.272 15.2449 10.6177 15.5949L14.1353 19.1719L14.1388 19.1758C14.5292 19.5662 15.0587 19.7854 15.6108 19.7854C16.1629 19.7854 16.6923 19.566 17.0827 19.1756C17.4731 18.7852 17.6924 18.2557 17.6923 17.7036C17.6923 17.1515 17.4729 16.622 17.0825 16.2317L11.8099 10.959C11.7953 10.9445 11.7838 10.9273 11.7759 10.9083C11.7681 10.8893 11.764 10.869 11.764 10.8484C11.764 10.8279 11.7681 10.8076 11.7759 10.7886C11.7838 10.7696 11.7953 10.7524 11.8099 10.7379L13.2009 9.34688C13.2589 9.28879 13.3279 9.24271 13.4037 9.21128C13.4796 9.17984 13.5609 9.16367 13.6431 9.16368H13.9653Z" fill="black"/>
<path d="M8.23994 14.4004C7.23929 14.3983 6.27981 14.0018 5.56963 13.2969L5.02822 12.7555C4.96964 12.697 4.89027 12.6642 4.80752 12.6642C4.72477 12.6642 4.6454 12.697 4.58682 12.7555L1.2665 16.0586C0.674707 16.6504 0.463378 17.5215 0.756347 18.3746C0.77278 18.4227 0.79222 18.4696 0.81455 18.5152C1.20869 19.3223 1.97353 19.791 2.81025 19.791C3.098 19.7917 3.38303 19.7353 3.64883 19.6251C3.91462 19.5149 4.1559 19.353 4.35869 19.1488L8.78682 14.6996C8.80545 14.6806 8.81972 14.6577 8.82863 14.6327C8.83753 14.6076 8.84086 14.5808 8.83838 14.5543V14.5441C8.83664 14.5198 8.82999 14.496 8.81882 14.4743C8.80766 14.4526 8.79221 14.4334 8.77341 14.4178C8.75462 14.4022 8.73286 14.3906 8.70945 14.3836C8.68604 14.3767 8.66146 14.3745 8.63721 14.3774C8.50528 14.392 8.37268 14.3997 8.23994 14.4004Z" fill="currentcolor"/>
</svg>
