<svg viewBox="0 0 20 20" xmlns="http://www.w3.org/2000/svg">
<path d="M11.6113 19.0881L12.1155 18.2362L10.9147 17.5254L10.4104 18.3774L11.6113 19.0881ZM7.88446 18.2362L8.38875 19.0881L9.58949 18.3774L9.08521 17.5254L7.88446 18.2362ZM10.4104 18.3774C10.2312 18.6803 9.76884 18.6803 9.58949 18.3774L8.38875 19.0881C9.10837 20.304 10.8916 20.304 11.6113 19.0881L10.4104 18.3774ZM8.60465 1.39535H11.3953V1.91677e-07H8.60465V1.39535ZM18.6047 8.60467V9.53491H20V8.60467H18.6047ZM1.39535 9.53491V8.60467H1.91676e-07V9.53491H1.39535ZM1.91676e-07 9.53491C1.91676e-07 10.609 -0.000381231 11.4494 0.0458699 12.1273C0.0925583 12.8115 0.189051 13.3809 0.407154 13.9074L1.69629 13.3734C1.56034 13.0452 1.47982 12.6454 1.43799 12.0323C1.39573 11.413 1.39535 10.628 1.39535 9.53491H1.91676e-07ZM6.09535 15.8062C4.9275 15.786 4.31556 15.7118 3.8359 15.5131L3.30193 16.8022C4.05074 17.1123 4.90361 17.1812 6.07131 17.2013L6.09535 15.8062ZM0.407154 13.9074C0.950028 15.218 1.99131 16.2593 3.30193 16.8022L3.8359 15.5131C2.86718 15.1118 2.09754 14.3422 1.69629 13.3734L0.407154 13.9074ZM18.6047 9.53491C18.6047 10.628 18.6043 11.413 18.562 12.0323C18.5202 12.6454 18.4396 13.0452 18.3037 13.3734L19.5928 13.9074C19.811 13.3809 19.9074 12.8115 19.9541 12.1273C20.0004 11.4494 20 10.609 20 9.53491H18.6047ZM13.9287 17.2013C15.0964 17.1812 15.9493 17.1123 16.698 16.8022L16.1641 15.5131C15.6845 15.7118 15.0725 15.786 13.9047 15.8062L13.9287 17.2013ZM18.3037 13.3734C17.9024 14.3422 17.1328 15.1118 16.1641 15.5131L16.698 16.8022C18.0086 16.2593 19.05 15.218 19.5928 13.9074L18.3037 13.3734ZM11.3953 1.39535C12.9313 1.39535 14.0344 1.39609 14.8948 1.47789C15.7448 1.55871 16.2857 1.71371 16.7168 1.97794L17.446 0.788207C16.7586 0.367043 15.979 0.17934 15.0269 0.0888097C14.0851 -0.000734739 12.9044 1.91677e-07 11.3953 1.91677e-07V1.39535ZM20 8.60467C20 7.09565 20.0007 5.9149 19.9112 4.97314C19.8207 4.021 19.6329 3.24136 19.2118 2.55408L18.022 3.28315C18.2863 3.71434 18.4413 4.25521 18.5221 5.10521C18.6039 5.9656 18.6047 7.06863 18.6047 8.60467H20ZM16.7168 1.97794C17.2488 2.30393 17.6961 2.75119 18.022 3.28315L19.2118 2.55408C18.7708 1.83437 18.1657 1.22925 17.446 0.788207L16.7168 1.97794ZM8.60465 1.91677e-07C7.09564 1.91677e-07 5.91488 -0.000734739 4.97313 0.0888097C4.02099 0.17934 3.24135 0.367043 2.55407 0.788207L3.28314 1.97794C3.71434 1.71371 4.2552 1.55871 5.1052 1.47789C5.96558 1.39609 7.06861 1.39535 8.60465 1.39535V1.91677e-07ZM1.39535 8.60467C1.39535 7.06863 1.39608 5.9656 1.47789 5.10521C1.55871 4.25521 1.7137 3.71434 1.97794 3.28315L0.788205 2.55408C0.367042 3.24136 0.17934 4.021 0.0888095 4.97314C-0.000734732 5.9149 1.91676e-07 7.09565 1.91676e-07 8.60467H1.39535ZM2.55407 0.788207C1.83436 1.22925 1.22925 1.83437 0.788205 2.55408L1.97794 3.28315C2.30393 2.75119 2.75118 2.30393 3.28314 1.97794L2.55407 0.788207ZM9.08521 17.5254C8.89637 17.2064 8.73061 16.9248 8.5694 16.7036C8.39954 16.4706 8.20484 16.2609 7.93475 16.1038L7.23323 17.31C7.27733 17.3356 7.33741 17.3824 7.44172 17.5254C7.55462 17.6804 7.68219 17.8945 7.88446 18.2362L9.08521 17.5254ZM6.07131 17.2013C6.47977 17.2083 6.73848 17.2135 6.9357 17.2353C7.11999 17.2558 7.19142 17.2856 7.23323 17.31L7.93475 16.1038C7.66242 15.9453 7.37903 15.8805 7.08927 15.8484C6.81246 15.8178 6.47791 15.8128 6.09535 15.8062L6.07131 17.2013ZM12.1155 18.2362C12.3178 17.8945 12.4453 17.6804 12.5582 17.5254C12.6625 17.3824 12.7226 17.3356 12.7667 17.31L12.0652 16.1038C11.7952 16.2609 11.6004 16.4706 11.4306 16.7036C11.2694 16.9248 11.1036 17.2064 10.9147 17.5254L12.1155 18.2362ZM13.9047 15.8062C13.522 15.8128 13.1875 15.8178 12.9107 15.8484C12.6209 15.8805 12.3376 15.9453 12.0652 16.1038L12.7667 17.31C12.8086 17.2856 12.88 17.2558 13.0643 17.2353C13.2615 17.2135 13.5202 17.2083 13.9287 17.2013L13.9047 15.8062Z" fill="black"/>
<path fill-rule="evenodd" clip-rule="evenodd" d="M7.2457 5.15415C7.10302 4.96783 6.85242 4.69955 6.46249 4.6356L6.28671 4.62193C5.79492 4.62193 5.4908 4.94121 5.32773 5.15415C5.17188 5.35769 5.01553 5.63832 4.85803 5.92101L4.83749 5.95786L4.7457 6.12193C4.73634 6.13871 4.72762 6.15373 4.71964 6.16748L4.70371 6.19517L4.63535 6.21079L4.45761 6.25083L4.41292 6.26093C4.10967 6.32945 3.8027 6.39881 3.56601 6.49204C3.33637 6.58254 3.0273 6.75174 2.85898 7.09653L2.7955 7.25571C2.65706 7.70123 2.83296 8.07699 2.98105 8.31236C3.11742 8.52899 3.32403 8.77044 3.53176 9.01321L3.5621 9.04868L3.6832 9.19028C3.69942 9.20926 3.71346 9.2261 3.72599 9.24113L3.74472 9.26353L3.74192 9.2979C3.7403 9.31852 3.73849 9.34161 3.73593 9.36802L3.71738 9.5565L3.71296 9.60197C3.68136 9.92726 3.6503 10.247 3.66171 10.5038C3.67374 10.7738 3.73959 11.1964 4.11874 11.4842C4.51001 11.7809 4.94109 11.7146 5.20664 11.6385C5.44866 11.5692 5.7329 11.4382 6.01449 11.3084L6.06308 11.286L6.23007 11.2098L6.2291 11.2088C6.24086 11.2034 6.25192 11.1985 6.26227 11.1939L6.28574 11.1834L6.34335 11.2098L6.51035 11.286L6.55913 11.3085C6.84067 11.4382 7.12482 11.5692 7.36679 11.6385C7.63238 11.7146 8.06339 11.781 8.45468 11.4842C8.83384 11.1964 8.89969 10.7738 8.91171 10.5038C8.92312 10.247 8.89206 9.92727 8.86046 9.60198L8.85605 9.5565L8.83749 9.36802C8.83341 9.32584 8.83026 9.29225 8.82773 9.26353C8.84039 9.24849 8.85487 9.23158 8.87167 9.21196L8.89023 9.19028L9.01132 9.04868L9.04148 9.01343C9.24927 8.77061 9.45597 8.52904 9.59238 8.31236C9.72192 8.10646 9.87202 7.79321 9.81503 7.41978L9.77792 7.25571L9.71445 7.09653C9.54612 6.7517 9.23706 6.58254 9.00742 6.49204C8.77083 6.39883 8.46397 6.3295 8.16082 6.261L8.11582 6.25083L7.93808 6.21079L7.86874 6.19517L7.82773 6.12193L7.73593 5.95786L7.7156 5.92137C7.55804 5.63857 7.4016 5.35778 7.2457 5.15415ZM6.51746 6.85239L6.42566 6.68833C6.39348 6.63061 6.36289 6.57736 6.33428 6.52757C6.31748 6.49833 6.30136 6.47027 6.28601 6.44321C6.27493 6.46276 6.26349 6.48286 6.25171 6.50356C6.21948 6.56019 6.18467 6.62137 6.14734 6.68833L6.05554 6.85239C6.04936 6.86349 6.04266 6.87575 6.03542 6.88901C5.96314 7.02138 5.83652 7.25325 5.62488 7.41392C5.40883 7.5779 5.14926 7.63406 5.00575 7.66511C4.99154 7.66819 4.97846 7.67102 4.96667 7.67368L4.78894 7.7147C4.66408 7.74295 4.55746 7.76741 4.46375 7.78989L4.47461 7.80301C4.5397 7.88153 4.61366 7.97075 4.70203 8.07407L4.82312 8.21568C4.83176 8.22578 4.84132 8.23676 4.85162 8.24859C4.93772 8.34751 5.07556 8.50586 5.16199 8.70884L5.1991 8.8104L5.22546 8.91294C5.26949 9.12819 5.24758 9.3376 5.23372 9.47001C5.23213 9.48525 5.23064 9.49946 5.22937 9.51255L5.21082 9.70103C5.1984 9.82918 5.18801 9.94041 5.17957 10.0389C5.204 10.0279 5.22936 10.0166 5.2557 10.0048C5.31109 9.9801 5.37082 9.95343 5.43542 9.92368L5.60242 9.84653C5.61315 9.84159 5.62504 9.83598 5.63803 9.82985C5.77002 9.76753 6.01432 9.6522 6.28699 9.6522L6.39734 9.65806C6.62297 9.6826 6.81942 9.77562 6.93358 9.82968C6.94749 9.83627 6.96019 9.84228 6.97156 9.84751L7.13757 9.92368C7.2079 9.95606 7.27237 9.98499 7.33178 10.0117C7.35262 10.021 7.37283 10.0301 7.39246 10.0389L7.39058 10.017C7.38261 9.92399 7.37368 9.81971 7.36218 9.70103L7.3446 9.51255C7.34334 9.49947 7.34185 9.48527 7.34026 9.47005C7.32422 9.3166 7.29738 9.05992 7.37488 8.8104C7.4537 8.55696 7.62409 8.3607 7.7235 8.2462C7.73299 8.23527 7.74183 8.22509 7.74988 8.21568L7.87097 8.07407C7.959 7.97115 8.03271 7.88222 8.09763 7.80392L8.10925 7.78989C8.01562 7.76743 7.90878 7.74292 7.78406 7.7147L7.6073 7.67368C7.59468 7.67083 7.58056 7.66779 7.56513 7.66448C7.44082 7.63776 7.23167 7.59282 7.03894 7.47642L6.94812 7.41392C6.7365 7.25322 6.60985 7.02133 6.53764 6.88911C6.53037 6.8758 6.52365 6.86351 6.51746 6.85239Z" fill="currentcolor"/>
<path d="M14.6444 9.27302C15.0586 9.27302 15.3944 9.6088 15.3944 10.023C15.3942 10.4371 15.0585 10.773 14.6444 10.773H10.9237C10.5096 10.773 10.1739 10.4371 10.1737 10.023C10.1737 9.6088 10.5095 9.27302 10.9237 9.27302H14.6444Z" fill="black"/>
<path d="M16.5819 6.48591C16.96 6.52437 17.2548 6.84372 17.2548 7.232C17.2548 7.64622 16.919 7.982 16.5048 7.982H10.9237C10.5095 7.982 10.1737 7.64622 10.1737 7.232C10.1737 6.81779 10.5095 6.482 10.9237 6.482H16.5048L16.5819 6.48591Z" fill="currentcolor"/>
</svg>
