<svg viewBox="0 0 20 20" xmlns="http://www.w3.org/2000/svg">
<path d="M18 10.2002C18.4395 10.2002 18.7998 10.5605 18.7998 11V17C18.7998 17.9895 17.9895 18.7998 17 18.7998H3C2.01046 18.7998 1.2002 17.9895 1.2002 17V11C1.2002 10.5605 1.56046 10.2002 2 10.2002C2.43954 10.2002 2.7998 10.5605 2.7998 11V16C2.7998 16.6605 3.33954 17.2002 4 17.2002H16C16.6605 17.2002 17.2002 16.6605 17.2002 16V11C17.2002 10.5605 17.5605 10.2002 18 10.2002ZM10 1.2002C10.4395 1.2002 10.7998 1.56046 10.7998 2V10.6699C10.7998 10.7508 10.8491 10.8235 10.9238 10.8545C10.9985 10.8853 11.0845 10.8687 11.1416 10.8115L13.0215 8.93164C13.0955 8.85763 13.1836 8.79884 13.2803 8.75879C13.3769 8.71879 13.4804 8.69825 13.585 8.69824C13.6895 8.69824 13.793 8.7188 13.8896 8.75879C13.9863 8.79884 14.0744 8.85763 14.1484 8.93164C14.2224 9.00564 14.2812 9.09375 14.3213 9.19043C14.3612 9.28703 14.3818 9.39058 14.3818 9.49512C14.3818 9.59969 14.3613 9.70319 14.3213 9.7998C14.2812 9.8965 14.2224 9.98458 14.1484 10.0586L10.5586 13.6484C10.4847 13.7225 10.3965 13.7812 10.2998 13.8213C10.2032 13.8614 10.0997 13.8828 9.99512 13.8828C9.89052 13.8828 9.78705 13.8613 9.69043 13.8213C9.59375 13.7812 9.50558 13.7225 9.43164 13.6484L5.8418 10.0586C5.69235 9.90915 5.60843 9.70646 5.6084 9.49512C5.6084 9.28373 5.69233 9.08111 5.8418 8.93164C5.99126 8.78222 6.19393 8.69824 6.40527 8.69824C6.61656 8.69831 6.81934 8.78223 6.96875 8.93164L8.85938 10.8115C8.91666 10.8684 9.00258 10.8855 9.07715 10.8545C9.15154 10.8234 9.2002 10.7506 9.2002 10.6699V2C9.2002 1.56046 9.56046 1.2002 10 1.2002Z" fill="currentcolor"/>
</svg>
