<svg viewBox="0 0 20 20" xmlns="http://www.w3.org/2000/svg">
<path fill-rule="evenodd" clip-rule="evenodd" d="M16.207 14.793C15.8165 14.4024 15.1835 14.4024 14.793 14.793C14.4024 15.1835 14.4024 15.8165 14.793 16.207L18.293 19.707C18.6835 20.0976 19.3165 20.0976 19.707 19.707C20.0976 19.3165 20.0976 18.6835 19.707 18.293L16.207 14.793ZM13.6572 2.34277C12.2507 0.9362 10.3739 0.107809 8.39648 0.00976562L8 0C5.87827 0 3.84306 0.842482 2.34277 2.34277C0.842482 3.84306 3.16167e-08 5.87827 0 8C-1.36977e-08 9.05058 0.207337 10.0909 0.609375 11.0615C1.01141 12.0321 1.59995 12.9144 2.34277 13.6572C3.08559 14.4 3.96795 14.9886 4.93848 15.3906C5.90908 15.7927 6.94943 16 8 16L8.39355 15.9902C9.30968 15.9451 10.2123 15.7424 11.0615 15.3906C12.0321 14.9886 12.9144 14.4 13.6572 13.6572C14.4 12.9144 14.9886 12.0321 15.3906 11.0615C15.7927 10.0909 16 9.05057 16 8C16 5.87827 15.1575 3.84306 13.6572 2.34277ZM12.2422 3.75781C11.117 2.63259 9.5913 2 8 2C6.4087 2 4.88303 2.63259 3.75781 3.75781C2.63259 4.88303 2 6.4087 2 8C2 8.78791 2.15552 9.56796 2.45703 10.2959C2.75856 11.0239 3.20066 11.685 3.75781 12.2422C4.31496 12.7993 4.97615 13.2414 5.7041 13.543C6.43204 13.8445 7.21209 14 8 14L8.29492 13.9932C8.98209 13.9593 9.65892 13.8068 10.2959 13.543C11.0239 13.2414 11.685 12.7993 12.2422 12.2422C12.7993 11.685 13.2414 11.0239 13.543 10.2959C13.8445 9.56796 14 8.78791 14 8C14 6.4087 13.3674 4.88303 12.2422 3.75781Z" fill="currentcolor"/>
</svg>
