<svg viewBox="0 0 20 20" xmlns="http://www.w3.org/2000/svg">
<path d="M6.66675 0L4.4445 2.22505L2.22225 4.45011L4.4445 6.67516L6.66675 8.90022L7.44454 8.12145L8.22233 7.34268L6.77787 5.89639L5.3334 4.45011L6.77787 3.00382L8.22233 1.55754L7.44454 0.778769L6.66675 0ZM13.3335 0L12.5557 0.778769L11.7779 1.55754L13.2224 3.00382L14.6669 4.45011L13.2224 5.89639L11.7779 7.34268L12.5557 8.12145L13.3335 8.90022L15.5558 6.67516L17.778 4.45011L15.5558 2.22505L13.3335 0ZM19.9747 16.788L19.5436 15.0836C19.5158 14.9751 19.4665 14.8732 19.3985 14.7841C19.3306 14.695 19.2454 14.6206 19.148 14.5652C19.0502 14.5089 18.942 14.4728 18.83 14.459C18.718 14.4453 18.6043 14.4541 18.4958 14.4851L13.438 15.9136L10.0001 14.4628L14.3502 13.347C14.6462 13.0809 14.8611 12.7365 14.9702 12.3535L14.6291 11.1253L5.55563 12.2378H0V18.913H5.55563L10.5057 19.9854C10.7748 20.0099 11.0458 20.0035 11.3135 19.9665L19.3803 17.7926C19.5916 17.7354 19.7725 17.5982 19.8847 17.4099C19.996 17.2224 20.0283 16.9994 19.9747 16.788ZM3.33338 17.8004H1.11113V13.3503H3.33338V17.8004ZM11.0246 18.8929C10.9744 18.9055 10.923 18.9123 10.8713 18.913C10.8283 18.9135 10.7854 18.909 10.7435 18.8996L5.55563 17.7593V13.3726L13.6991 12.3624L7.77788 14.4628L13.0235 16.946L13.3757 17.0873L13.7402 16.9838L18.5358 15.6299L18.8291 16.7891L11.0246 18.8929Z" fill="currentcolor"/>
</svg>
