<svg viewBox="0 0 20 20" xmlns="http://www.w3.org/2000/svg">
<path d="M16.5833 10.5505C16.4497 10.3984 16.376 10.2029 16.376 10.0005C16.376 9.79806 16.4497 9.60256 16.5833 9.45048L17.65 8.25048C17.7675 8.11937 17.8405 7.9544 17.8585 7.77924C17.8765 7.60407 17.8385 7.42772 17.75 7.27548L16.0833 4.39215C15.9957 4.24008 15.8624 4.11955 15.7023 4.04772C15.5422 3.97589 15.3635 3.95645 15.1917 3.99215L13.625 4.30882C13.4256 4.35001 13.2181 4.31681 13.0416 4.21548C12.865 4.11416 12.7317 3.95172 12.6667 3.75882L12.1583 2.23382C12.1024 2.0683 11.9959 1.92454 11.8539 1.82285C11.7118 1.72116 11.5414 1.6667 11.3667 1.66715H8.03333C7.85161 1.65766 7.67177 1.70792 7.5213 1.81024C7.37082 1.91257 7.25798 2.06133 7.2 2.23382L6.73333 3.75882C6.66833 3.95172 6.53497 4.11416 6.35842 4.21548C6.18187 4.31681 5.97434 4.35001 5.77499 4.30882L4.16666 3.99215C4.00379 3.96913 3.83774 3.99483 3.68945 4.06602C3.54116 4.1372 3.41725 4.25067 3.33333 4.39215L1.66666 7.27548C1.57596 7.42602 1.53518 7.60139 1.55015 7.7765C1.56511 7.95162 1.63506 8.11752 1.74999 8.25048L2.80833 9.45048C2.94193 9.60256 3.01561 9.79806 3.01561 10.0005C3.01561 10.2029 2.94193 10.3984 2.80833 10.5505L1.74999 11.7505C1.63506 11.8834 1.56511 12.0493 1.55015 12.2245C1.53518 12.3996 1.57596 12.5749 1.66666 12.7255L3.33333 15.6088C3.42091 15.7609 3.55426 15.8814 3.71437 15.9532C3.87448 16.0251 4.05318 16.0445 4.225 16.0088L5.79166 15.6921C5.99101 15.651 6.19854 15.6842 6.37509 15.7855C6.55164 15.8868 6.685 16.0492 6.74999 16.2421L7.25833 17.7671C7.31631 17.9396 7.42916 18.0884 7.57963 18.1907C7.73011 18.293 7.90994 18.3433 8.09166 18.3338H11.425C11.5997 18.3343 11.7701 18.2798 11.9122 18.1781C12.0542 18.0764 12.1608 17.9327 12.2167 17.7671L12.725 16.2421C12.79 16.0492 12.9234 15.8868 13.0999 15.7855C13.2764 15.6842 13.484 15.651 13.6833 15.6921L15.25 16.0088C15.4218 16.0445 15.6005 16.0251 15.7606 15.9532C15.9207 15.8814 16.0541 15.7609 16.1417 15.6088L17.8083 12.7255C17.8968 12.5732 17.9348 12.3969 17.9168 12.2217C17.8989 12.0466 17.8259 11.8816 17.7083 11.7505L16.5833 10.5505ZM15.3417 11.6671L16.0083 12.4171L14.9417 14.2671L13.9583 14.0671C13.3581 13.9445 12.7338 14.0464 12.2038 14.3536C11.6738 14.6609 11.2751 15.152 11.0833 15.7338L10.7667 16.6671H8.63333L8.33333 15.7171C8.14154 15.1353 7.74281 14.6442 7.21283 14.337C6.68285 14.0297 6.05851 13.9278 5.45833 14.0505L4.47499 14.2505L3.39166 12.4088L4.05833 11.6588C4.46829 11.2005 4.69494 10.6071 4.69494 9.99215C4.69494 9.3772 4.46829 8.78383 4.05833 8.32548L3.39166 7.57548L4.45833 5.74215L5.44166 5.94215C6.04185 6.06483 6.66618 5.96288 7.19617 5.65565C7.72615 5.34841 8.12487 4.85728 8.31666 4.27548L8.63333 3.33382H10.7667L11.0833 4.28382C11.2751 4.86561 11.6738 5.35675 12.2038 5.66398C12.7338 5.97122 13.3581 6.07317 13.9583 5.95048L14.9417 5.75048L16.0083 7.60048L15.3417 8.35048C14.9363 8.80778 14.7125 9.39772 14.7125 10.0088C14.7125 10.6199 14.9363 11.2098 15.3417 11.6671ZM9.7 6.66715C9.04072 6.66715 8.39626 6.86265 7.84809 7.22892C7.29993 7.59519 6.87269 8.11578 6.6204 8.72487C6.3681 9.33396 6.30209 10.0042 6.43071 10.6508C6.55933 11.2974 6.8768 11.8913 7.34297 12.3575C7.80915 12.8237 8.40309 13.1411 9.04969 13.2698C9.6963 13.3984 10.3665 13.3324 10.9756 13.0801C11.5847 12.8278 12.1053 12.4005 12.4716 11.8524C12.8378 11.3042 13.0333 10.6598 13.0333 10.0005C13.0333 9.11643 12.6821 8.26858 12.057 7.64346C11.4319 7.01834 10.5841 6.66715 9.7 6.66715ZM9.7 11.6671C9.37036 11.6671 9.04813 11.5694 8.77404 11.3863C8.49996 11.2031 8.28634 10.9428 8.1602 10.6383C8.03405 10.3337 8.00104 9.99863 8.06535 9.67533C8.12966 9.35203 8.2884 9.05506 8.52148 8.82197C8.75457 8.58888 9.05154 8.43015 9.37484 8.36584C9.69815 8.30153 10.0333 8.33454 10.3378 8.46068C10.6423 8.58683 10.9026 8.80045 11.0858 9.07453C11.2689 9.34861 11.3667 9.67085 11.3667 10.0005C11.3667 10.4425 11.1911 10.8664 10.8785 11.179C10.5659 11.4916 10.142 11.6671 9.7 11.6671Z" fill="currentcolor"/>
</svg>
