<svg viewBox="0 0 20 20" xmlns="http://www.w3.org/2000/svg">
<path d="M16 20C15.1667 20 14.4583 19.7083 13.875 19.125C13.2917 18.5417 13 17.8333 13 17C13 16.9 13.025 16.6667 13.075 16.3L6.05 12.2C5.78333 12.45 5.475 12.646 5.125 12.788C4.775 12.93 4.4 13.0007 4 13C3.16667 13 2.45833 12.7083 1.875 12.125C1.29167 11.5417 1 10.8333 1 10C1 9.16667 1.29167 8.45833 1.875 7.875C2.45833 7.29167 3.16667 7 4 7C4.4 7 4.775 7.071 5.125 7.213C5.475 7.355 5.78333 7.55067 6.05 7.8L13.075 3.7C13.0417 3.58333 13.021 3.471 13.013 3.363C13.005 3.255 13.0007 3.134 13 3C13 2.16667 13.2917 1.45833 13.875 0.875C14.4583 0.291667 15.1667 0 16 0C16.8333 0 17.5417 0.291667 18.125 0.875C18.7083 1.45833 19 2.16667 19 3C19 3.83333 18.7083 4.54167 18.125 5.125C17.5417 5.70833 16.8333 6 16 6C15.6 6 15.225 5.929 14.875 5.787C14.525 5.645 14.2167 5.44933 13.95 5.2L6.925 9.3C6.95833 9.41667 6.97933 9.52933 6.988 9.638C6.99667 9.74667 7.00067 9.86733 7 10C6.99933 10.1327 6.99533 10.2537 6.988 10.363C6.98067 10.4723 6.95967 10.5847 6.925 10.7L13.95 14.8C14.2167 14.55 14.525 14.3543 14.875 14.213C15.225 14.0717 15.6 14.0007 16 14C16.8333 14 17.5417 14.2917 18.125 14.875C18.7083 15.4583 19 16.1667 19 17C19 17.8333 18.7083 18.5417 18.125 19.125C17.5417 19.7083 16.8333 20 16 20ZM16 18C16.2833 18 16.521 17.9043 16.713 17.713C16.905 17.5217 17.0007 17.284 17 17C16.9993 16.716 16.9033 16.4787 16.712 16.288C16.5207 16.0973 16.2833 16.0013 16 16C15.7167 15.9987 15.4793 16.0947 15.288 16.288C15.0967 16.4813 15.0007 16.7187 15 17C14.9993 17.2813 15.0953 17.519 15.288 17.713C15.4807 17.907 15.718 18.0027 16 18ZM4 11C4.28333 11 4.521 10.904 4.713 10.712C4.905 10.52 5.00067 10.2827 5 10C4.99933 9.71733 4.90333 9.48 4.712 9.288C4.52067 9.096 4.28333 9 4 9C3.71667 9 3.47933 9.096 3.288 9.288C3.09667 9.48 3.00067 9.71733 3 10C2.99933 10.2827 3.09533 10.5203 3.288 10.713C3.48067 10.9057 3.718 11.0013 4 11ZM16 4C16.2833 4 16.521 3.904 16.713 3.712C16.905 3.52 17.0007 3.28267 17 3C16.9993 2.71733 16.9033 2.48 16.712 2.288C16.5207 2.096 16.2833 2 16 2C15.7167 2 15.4793 2.096 15.288 2.288C15.0967 2.48 15.0007 2.71733 15 3C14.9993 3.28267 15.0953 3.52033 15.288 3.713C15.4807 3.90567 15.718 4.00133 16 4Z" fill="currentcolor"/>
</svg>
