<svg viewBox="0 0 20 20" xmlns="http://www.w3.org/2000/svg">
<path d="M7.43784 4.06755C8.57781 2.02252 9.14778 1 9.99999 1C10.8522 1 11.4222 2.02251 12.5621 4.06754L12.857 4.59661C13.181 5.17774 13.3429 5.46832 13.5956 5.66004C13.8481 5.85175 14.1626 5.92292 14.7917 6.06525L15.3644 6.19483C17.5781 6.69571 18.685 6.94615 18.9483 7.79297C19.2117 8.63975 18.4571 9.5222 16.9479 11.2869L16.5575 11.7435C16.1286 12.245 15.9142 12.4957 15.8177 12.8059C15.7213 13.1162 15.7537 13.4507 15.8185 14.1199L15.8775 14.729C16.1057 17.0836 16.2198 18.2609 15.5304 18.7842C14.8409 19.3076 13.8046 18.8304 11.7319 17.8761L11.1956 17.6291C10.6067 17.358 10.3122 17.2223 9.99999 17.2223C9.68778 17.2223 9.3933 17.358 8.80434 17.6291L8.26812 17.8761C6.19541 18.8304 5.15906 19.3076 4.46963 18.7842C3.78021 18.2609 3.89429 17.0836 4.12246 14.729L4.18148 14.1199C4.24632 13.4507 4.27874 13.1162 4.18227 12.8059C4.08581 12.4957 3.87139 12.245 3.44253 11.7435L3.05209 11.2869C1.54293 9.5222 0.78834 8.63975 1.05168 7.79297C1.31502 6.94615 2.42187 6.69571 4.63558 6.19483L5.2083 6.06525C5.83736 5.92292 6.15189 5.85175 6.40444 5.66004C6.65699 5.46832 6.81897 5.17775 7.14292 4.59661L7.43784 4.06755Z" fill="currentcolor"/>
</svg>
