<svg viewBox="0 0 20 20" fill="none" xmlns="http://www.w3.org/2000/svg">
<path d="M6.79203 0.459148C7.42052 0.330696 8.0775 0.413769 8.65726 0.699383L8.89847 0.832195C9.44375 1.16889 9.86501 1.67906 10.0918 2.28434L10.7207 3.95915L10.7891 4.1652C10.9308 4.65162 10.9445 5.169 10.8262 5.66325C10.6908 6.2282 10.3882 6.74079 9.96 7.13395L8.74906 8.24235C8.54819 8.42617 8.47501 8.71164 8.56058 8.96891C8.74339 9.51808 8.97756 10.05 9.26371 10.5558C9.26559 10.5593 9.2666 10.5622 9.26859 10.5656C9.56466 11.0696 9.91065 11.5423 10.2969 11.9777C10.4753 12.1786 10.7559 12.2594 11.0166 12.1779L12.585 11.6847L12.795 11.6271C13.2881 11.5117 13.8051 11.5263 14.293 11.6711C14.8506 11.8368 15.3474 12.1656 15.7168 12.6144L16.8594 14.0021C17.327 14.5696 17.5599 15.2946 17.5118 16.0295C17.4699 16.665 17.2198 17.2662 16.8047 17.7414L16.5879 17.966C14.7781 19.6461 12.0234 20.2492 9.89554 18.7199L9.67679 18.5539C7.78314 17.0252 6.18445 15.161 4.9639 13.0558L4.54593 12.3039C3.61482 10.5337 2.96215 8.63028 2.61136 6.65934L2.53715 6.20134C2.12404 3.46431 4.08578 1.27415 6.52543 0.526531L6.79203 0.459148ZM7.22757 1.91716C7.21462 1.91853 7.20127 1.92039 7.18851 1.92302L7.00394 1.9611L6.96781 1.97087C5.01998 2.56746 3.75826 4.18807 4.02836 5.9777L4.03129 5.99626L4.17386 6.79411L4.17582 6.80192L4.17679 6.80973C4.51161 8.46264 5.07832 10.061 5.85941 11.5558C5.862 11.5608 5.8654 11.5656 5.8682 11.5705L6.2559 12.2726L6.2598 12.2804L6.26957 12.2961C7.39798 14.2427 8.87394 15.9659 10.625 17.3791C10.6304 17.3834 10.6361 17.3877 10.6416 17.3918L10.877 17.5627C10.8827 17.5668 10.8887 17.5706 10.8946 17.5744C12.2939 18.479 14.169 18.1531 15.5674 16.8498C16.1012 16.3524 16.1599 15.5249 15.6944 14.9601L14.5508 13.5724C14.372 13.3556 14.1318 13.1971 13.8643 13.1174L13.7627 13.091C13.5246 13.0392 13.2739 13.0491 13.0381 13.1232L10.625 13.883C10.5013 13.922 10.368 13.9286 10.2403 13.9015C10.1457 13.8814 10.0574 13.8431 9.97855 13.7902L9.87992 13.7131L9.83793 13.674L9.53324 13.3771L9.2266 13.0461C8.85405 12.6305 8.37442 12.0329 7.96293 11.3205C7.6533 10.7843 7.4197 10.2479 7.24906 9.78923L7.09867 9.35954C7.01571 9.10586 6.95438 8.89021 6.91312 8.73259L6.91215 8.72477L6.90824 8.7072L6.86136 8.51872C6.8604 8.51482 6.85853 8.51086 6.85746 8.507L6.84574 8.44841C6.84515 8.44549 6.84347 8.44252 6.84281 8.43962C6.81725 8.31297 6.8255 8.18101 6.86527 8.05778C6.90535 7.93386 6.97702 7.82187 7.07328 7.73356L8.93851 6.02067C9.14414 5.83192 9.29162 5.58532 9.35746 5.31071C9.35975 5.30113 9.36174 5.29114 9.36332 5.28141L9.38675 5.13298C9.38832 5.12328 9.38981 5.11347 9.39066 5.10368C9.40408 4.94919 9.3925 4.79226 9.35453 4.63981L9.30765 4.48942L8.67972 2.81462C8.55543 2.48261 8.30885 2.21054 7.99222 2.05387L7.99125 2.0529C7.75417 1.9363 7.48832 1.88955 7.22757 1.91716Z" fill="currentcolor"/>
</svg>
