<svg viewBox="0 0 20 20" xmlns="http://www.w3.org/2000/svg">
<path fill-rule="evenodd" clip-rule="evenodd" d="M13.3333 8C13.3333 8.88406 12.9821 9.7319 12.357 10.357C11.7319 10.9821 10.8841 11.3333 10 11.3333C9.11594 11.3333 8.2681 10.9821 7.64298 10.357C7.01786 9.7319 6.66667 8.88406 6.66667 8C6.66667 7.11595 7.01786 6.2681 7.64298 5.64298C8.2681 5.01786 9.11594 4.66667 10 4.66667C10.8841 4.66667 11.7319 5.01786 12.357 5.64298C12.9821 6.2681 13.3333 7.11595 13.3333 8ZM12 8C11.9998 8.53061 11.7889 9.03942 11.4135 9.41449C11.0382 9.78956 10.5293 10.0002 9.99867 10C9.46806 9.99982 8.95925 9.78887 8.58418 9.41355C8.2091 9.03823 7.99849 8.52928 7.99867 7.99867C7.99884 7.46806 8.2098 6.95925 8.58512 6.58418C8.96044 6.2091 9.46939 5.99849 10 5.99867C10.5306 5.99884 11.0394 6.2098 11.4145 6.58512C11.7896 6.96044 12.0002 7.46939 12 8Z" fill="currentcolor"/>
<path fill-rule="evenodd" clip-rule="evenodd" d="M18 8C18 14 11.3333 20 10 20C8.66667 20 2 14 2 8C2 3.58667 5.58667 0 10 0C14.4133 0 18 3.58667 18 8ZM16.6667 8C16.6667 10.5467 15.2267 13.2533 13.4667 15.4133C12.604 16.472 11.7067 17.3467 10.9733 17.9333C10.668 18.1856 10.3419 18.4117 9.99867 18.6093L9.92933 18.572C9.61142 18.3823 9.30833 18.1688 9.02267 17.9333C8.28667 17.3387 7.396 16.4667 6.52933 15.4133C4.76933 13.2533 3.32933 10.5467 3.32933 8C3.32933 4.32 6.316 1.33333 9.996 1.33333C13.676 1.33333 16.6627 4.32 16.6627 8H16.6667Z" fill="currentcolor"/>
</svg>
