<svg viewBox="0 0 20 20" xmlns="http://www.w3.org/2000/svg">
<g clip-path="url(#clip0_2066_4702)">
<path d="M12 0.785156C12.4697 0.785156 12.8649 0.949198 13.2012 1.28597C13.4959 1.58115 13.6568 1.92069 13.6924 2.31401L13.7002 2.49203V4.49138C13.7002 4.65734 13.8343 4.79167 14 4.79167H18C18.4697 4.79167 18.8649 4.95572 19.2012 5.29249C19.5374 5.62925 19.7008 6.02502 19.7002 6.49464V17.5126C19.7002 17.9831 19.5367 18.379 19.2012 18.7157C18.8658 19.0521 18.4704 19.2161 18 19.2155H2C1.53011 19.2155 1.13526 19.0517 0.799805 18.7157C0.542331 18.4578 0.38654 18.1651 0.327148 17.8314L0.307617 17.6867L0.299805 17.5086V6.49464C0.299805 6.02416 0.46373 5.62854 0.799805 5.29249C1.13604 4.95636 1.53098 4.79233 2 4.79167H6C6.16569 4.79167 6.2998 4.65734 6.2998 4.49138V2.48812C6.2998 2.01764 6.46373 1.62202 6.7998 1.28597C7.13604 0.949847 7.53098 0.785811 8 0.785156H12ZM2 6.19435C1.83431 6.19435 1.7002 6.32868 1.7002 6.49464V17.5126C1.7002 17.6785 1.83431 17.8129 2 17.8129H4C4.16569 17.8129 4.2998 17.6785 4.2998 17.5126V6.49464C4.2998 6.32868 4.16569 6.19435 4 6.19435H2ZM6 6.19435C5.83431 6.19435 5.7002 6.32868 5.7002 6.49464V17.5126C5.7002 17.6785 5.83431 17.8129 6 17.8129H14C14.1657 17.8129 14.2998 17.6785 14.2998 17.5126V6.49464C14.2998 6.32868 14.1657 6.19435 14 6.19435H6ZM16 6.19435C15.8343 6.19435 15.7002 6.32868 15.7002 6.49464V17.5126C15.7002 17.6785 15.8343 17.8129 16 17.8129H18C18.1657 17.8129 18.2998 17.6785 18.2998 17.5126V6.49464C18.2998 6.32868 18.1657 6.19435 18 6.19435H16ZM8 2.18783C7.83431 2.18783 7.7002 2.32217 7.7002 2.48812V4.49138C7.7002 4.65734 7.83431 4.79167 8 4.79167H12C12.1657 4.79167 12.2998 4.65734 12.2998 4.49138V2.48812C12.2998 2.32217 12.1657 2.18783 12 2.18783H8Z" fill="currentcolor"/>
</g>
<defs>
<clipPath id="clip0_2066_4702">
<rect width="20" height="20" fill="white"/>
</clipPath>
</defs>
</svg>
