<svg viewBox="0 0 20 20"   xmlns="http://www.w3.org/2000/svg">
<path d="M10.2478 5C7.40718 5 4.8353 6.125 2.94468 7.95625C2.5478 8.34063 1.91343 8.33125 1.53218 7.93437C1.15093 7.5375 1.15718 6.90312 1.55405 6.52187C3.80093 4.34062 6.86968 3 10.2478 3C13.6259 3 16.6947 4.34062 18.9447 6.52187C19.3416 6.90625 19.3509 7.54062 18.9666 7.93437C18.5822 8.32812 17.9478 8.34063 17.5541 7.95625C15.6603 6.125 13.0884 5 10.2478 5ZM8.7478 15.5C8.7478 15.1022 8.90584 14.7206 9.18714 14.4393C9.46844 14.158 9.84998 14 10.2478 14C10.6456 14 11.0272 14.158 11.3085 14.4393C11.5898 14.7206 11.7478 15.1022 11.7478 15.5C11.7478 15.8978 11.5898 16.2794 11.3085 16.5607C11.0272 16.842 10.6456 17 10.2478 17C9.84998 17 9.46844 16.842 9.18714 16.5607C8.90584 16.2794 8.7478 15.8978 8.7478 15.5ZM6.4978 12.1938C6.13218 12.6094 5.50093 12.6469 5.0853 12.2812C4.66968 11.9156 4.63218 11.2844 4.9978 10.8687C6.27905 9.41875 8.15718 8.5 10.2478 8.5C12.3384 8.5 14.2166 9.41875 15.4978 10.8687C15.8634 11.2844 15.8228 11.9156 15.4103 12.2812C14.9978 12.6469 14.3634 12.6063 13.9978 12.1938C13.0791 11.1531 11.7416 10.5 10.2478 10.5C8.75405 10.5 7.41655 11.1531 6.4978 12.1938Z" fill="currentcolor"/>
</svg>
