<svg viewBox="0 0 20 20" fill="none">
<path d="M10 11.7034L4.03802 17.6654C3.81496 17.8885 3.53105 18 3.18631 18C2.84157 18 2.55767 17.8885 2.3346 17.6654C2.11153 17.4423 2 17.1584 2 16.8137C2 16.4689 2.11153 16.185 2.3346 15.962L8.29658 10L2.3346 4.03802C2.11153 3.81496 2 3.53105 2 3.18631C2 2.84157 2.11153 2.55767 2.3346 2.3346C2.55767 2.11153 2.84157 2 3.18631 2C3.53105 2 3.81496 2.11153 4.03802 2.3346L10 8.29658L15.962 2.3346C16.185 2.11153 16.4689 2 16.8137 2C17.1584 2 17.4423 2.11153 17.6654 2.3346C17.8885 2.55767 18 2.84157 18 3.18631C18 3.53105 17.8885 3.81496 17.6654 4.03802L11.7034 10L17.6654 15.962C17.8885 16.185 18 16.4689 18 16.8137C18 17.1584 17.8885 17.4423 17.6654 17.6654C17.4423 17.8885 17.1584 18 16.8137 18C16.4689 18 16.185 17.8885 15.962 17.6654L10 11.7034Z" fill="currentcolor"/>
</svg>
